<svg width="20" height="21" viewBox="0 0 20 21" fill="none" xmlns="http://www.w3.org/2000/svg">
<g id="Component 2" clip-path="url(#clip0_3388_7736)">
<path id="Vector" d="M5.83301 8.55502C5.83301 7.96558 6.06716 7.40027 6.48396 6.98347C6.90076 6.56668 7.46606 6.33252 8.05551 6.33252H15.2772C15.569 6.33252 15.858 6.39001 16.1277 6.5017C16.3973 6.61339 16.6423 6.7771 16.8487 6.98347C17.0551 7.18985 17.2188 7.43486 17.3305 7.70451C17.4422 7.97415 17.4997 8.26316 17.4997 8.55502V15.7767C17.4997 16.0686 17.4422 16.3576 17.3305 16.6272C17.2188 16.8968 17.0551 17.1419 16.8487 17.3482C16.6423 17.5546 16.3973 17.7183 16.1277 17.83C15.858 17.9417 15.569 17.9992 15.2772 17.9992H8.05551C7.76365 17.9992 7.47464 17.9417 7.20499 17.83C6.93535 17.7183 6.69034 17.5546 6.48396 17.3482C6.27758 17.1419 6.11388 16.8968 6.00219 16.6272C5.89049 16.3576 5.83301 16.0686 5.83301 15.7767V8.55502Z" stroke="#F7FFFA" stroke-linecap="round" stroke-linejoin="round"/>
<path id="Vector_2" d="M3.34333 14.4475C3.08779 14.3018 2.87523 14.0912 2.72715 13.8371C2.57906 13.5829 2.50071 13.2942 2.5 13V4.66667C2.5 3.75 3.25 3 4.16667 3H12.5C13.125 3 13.465 3.32083 13.75 3.83333" stroke="#F7FFFA" stroke-linecap="round" stroke-linejoin="round"/>
</g>
<defs>
<clipPath id="clip0_3388_7736">
<rect width="20" height="20" fill="white" transform="translate(0 0.5)"/>
</clipPath>
</defs>
</svg>
