<svg width="16" height="16" viewBox="0 0 16 16" fill="none" xmlns="http://www.w3.org/2000/svg">
<path d="M14 15.5H8V14H14V8.75H2C1.6023 8.7496 1.221 8.59144 0.939779 8.31022C0.65856 8.029 0.500397 7.6477 0.5 7.25V2C0.500397 1.6023 0.65856 1.221 0.939779 0.939779C1.221 0.65856 1.6023 0.500397 2 0.5H9.5V2H2V7.25H14C14.3977 7.2504 14.779 7.40856 15.0602 7.68978C15.3414 7.971 15.4996 8.3523 15.5 8.75V14C15.4996 14.3977 15.3414 14.779 15.0602 15.0602C14.779 15.3414 14.3977 15.4996 14 15.5Z" fill="#9F9F9F"/>
</svg>
