<svg width="60" height="60" viewBox="0 0 90 91" fill="none" xmlns="http://www.w3.org/2000/svg">
<path d="M64.6875 45.5287C60.4501 45.5328 56.3271 46.9038 52.9312 49.4381L41.0625 37.5694C43.6267 34.1982 45.0104 30.0768 45 25.8412C45.0111 21.4057 43.524 17.0963 40.7797 13.6115C38.0354 10.1268 34.1948 7.67084 29.8803 6.64173C25.5657 5.61261 21.0301 6.07063 17.0083 7.94157C12.9866 9.8125 9.71457 12.9867 7.72241 16.9498C5.73025 20.9128 5.13474 25.4325 6.0324 29.7763C6.93006 34.1201 9.26827 38.0335 12.6681 40.8823C16.068 43.7311 20.3302 45.3483 24.764 45.4719C29.1979 45.5954 33.5436 44.2181 37.0968 41.5631L48.9375 53.4319C46.2832 56.9841 44.9058 61.3284 45.0286 65.7611C45.1513 70.1938 46.7669 74.4553 49.6137 77.8552C52.4605 81.2551 56.3717 83.5945 60.7139 84.4942C65.056 85.394 69.5748 84.8015 73.5382 82.8127C77.5016 80.8239 80.6775 77.5553 82.5515 73.5364C84.4256 69.5174 84.8879 64.9835 83.8637 60.669C82.8395 56.3545 80.3887 52.5122 76.9084 49.7643C73.428 47.0164 69.1218 45.524 64.6875 45.5287ZM11.25 25.8412C11.25 23.0599 12.0747 20.3411 13.6199 18.0285C15.1651 15.716 17.3614 13.9135 19.931 12.8492C22.5006 11.7848 25.3281 11.5063 28.0559 12.0489C30.7838 12.5915 33.2895 13.9309 35.2562 15.8975C37.2228 17.8642 38.5622 20.3699 39.1048 23.0978C39.6474 25.8256 39.3689 28.6531 38.3045 31.2227C37.2402 33.7923 35.4377 35.9886 33.1252 37.5338C30.8126 39.079 28.0938 39.9037 25.3125 39.9037C21.5829 39.9037 18.006 38.4222 15.3688 35.7849C12.7315 33.1477 11.25 29.5708 11.25 25.8412Z" fill="url(#paint0_linear_886_7956)"/>
<defs>
<linearGradient id="paint0_linear_886_7956" x1="-24.7515" y1="-15.5913" x2="67.4327" y2="139.619" gradientUnits="userSpaceOnUse">
<stop offset="0.010174" stop-color="#02DB5B"/>
<stop offset="0.996912" stop-color="#4977C1"/>
</linearGradient>
</defs>
</svg>
