<svg width="60" height="60" viewBox="0 0 80 77" fill="none" xmlns="http://www.w3.org/2000/svg">
<path d="M57 0C46.65 0 38.25 8.4 38.25 18.75C38.25 29.1 46.65 37.5 57 37.5C67.35 37.5 75.75 29.1 75.75 18.75C75.75 8.4 67.35 0 57 0ZM57 30C50.775 30 45.75 24.975 45.75 18.75C45.75 12.525 50.775 7.5 57 7.5C63.225 7.5 68.25 12.525 68.25 18.75C68.25 24.975 63.225 30 57 30ZM68.25 52.5H60.75C60.75 48 57.9375 43.95 53.7375 42.375L30.6375 33.75H0.75V75H23.25V69.6L49.5 76.875L79.5 67.5V63.75C79.5 57.525 74.475 52.5 68.25 52.5ZM15.75 67.5H8.25V41.25H15.75V67.5ZM49.3875 69.0375L23.25 61.875V41.25H29.2875L51.1125 49.3875C52.3875 49.875 53.25 51.1125 53.25 52.5C53.25 52.5 45.75 52.3125 44.625 51.9375L35.7 48.975L33.3375 56.1L42.2625 59.0625C44.175 59.7 46.1625 60 48.1875 60H68.25C69.7125 60 71.025 60.9 71.625 62.1375L49.3875 69.0375Z" fill="url(#paint0_linear_886_8177)"/>
<defs>
<linearGradient id="paint0_linear_886_8177" x1="-29.6184" y1="-21.166" x2="59.2482" y2="132.163" gradientUnits="userSpaceOnUse">
<stop offset="0.010174" stop-color="#02DB5B"/>
<stop offset="0.996912" stop-color="#4977C1"/>
</linearGradient>
</defs>
</svg>
