<svg width="60" height="60" viewBox="0 0 90 91" fill="none" xmlns="http://www.w3.org/2000/svg">
<g clip-path="url(#clip0_886_7949)">
<path d="M69.375 41.75L52.5 34.25V15.5M69.375 41.75L86.25 34.25V15.5M69.375 41.75V23M86.25 15.5L69.375 8L52.5 15.5M86.25 15.5L69.375 23M52.5 15.5L69.375 23M26.25 56.75C22.2718 56.75 18.4564 55.1696 15.6434 52.3566C12.8304 49.5436 11.25 45.7282 11.25 41.75C11.25 37.7718 12.8304 33.9564 15.6434 31.1434C18.4564 28.3304 22.2718 26.75 26.25 26.75C30.2282 26.75 34.0436 28.3304 36.8566 31.1434C39.6696 33.9564 41.25 37.7718 41.25 41.75C41.25 45.7282 39.6696 49.5436 36.8566 52.3566C34.0436 55.1696 30.2282 56.75 26.25 56.75ZM26.25 56.75C13.125 56.75 3.75 64.25 3.75 79.25V86.75H48.75V79.25C48.75 64.25 39.375 56.75 26.25 56.75Z" stroke="url(#paint0_linear_886_7949)" stroke-width="7.5"/>
</g>
<defs>
<linearGradient id="paint0_linear_886_7949" x1="-28.0645" y1="-13.6823" x2="61.9436" y2="145.138" gradientUnits="userSpaceOnUse">
<stop offset="0.010174" stop-color="#02DB5B"/>
<stop offset="0.996912" stop-color="#4977C1"/>
</linearGradient>
<clipPath id="clip0_886_7949">
<rect width="90" height="90" fill="white" transform="translate(0 0.5)"/>
</clipPath>
</defs>
</svg>
