<svg width="60" height="60" viewBox="0 0 90 91" fill="none" xmlns="http://www.w3.org/2000/svg">
<path d="M3.30127 3.92773V17.9298C11.1559 18.911 17.6304 22.3183 23.8074 26.2189L19.4568 29.7456L37.3483 38.8695L32.437 19.2207L27.8834 22.9121C24.3282 15.8791 20.3638 9.24863 15.0953 3.92773H3.30127ZM52.0588 3.92773C49.3124 8.98408 46.9247 14.1452 44.7146 19.4239L39.4078 18.2979L43.9676 38.0293L55.7555 21.7695L50.5537 20.6656C56.4055 14.5578 62.436 8.74889 69.549 3.92773H52.0588ZM86.7756 20.4237C80.098 20.86 74.1123 23.8826 68.3133 27.6143L66.1213 21.8961L52.0479 36.4583L72.1035 37.502L69.7744 31.4264C75.4415 31.2622 81.1084 31.7476 86.7756 35.1838V20.4237ZM52.6687 42.929C51.7406 42.9501 50.874 43.3537 49.6913 44.6156L48.5377 45.8405L47.3401 44.6592C46.0416 43.3796 45.017 43.0262 43.9783 43.0719C42.9398 43.1176 41.7186 43.6638 40.3528 44.7693L39.2598 45.6535L38.2216 44.7088C36.6572 43.2934 35.3239 42.874 34.0468 42.9399C33.1173 42.9881 32.1528 43.3382 31.1904 43.9507L38.3918 56.9036C41.1083 58.5651 46.6593 59.19 50.4767 57.2663L57.4366 44.3738C56.1165 43.8355 54.93 43.2836 53.9045 43.0719C53.5332 42.9951 53.1887 42.939 52.8551 42.929C52.793 42.9274 52.7308 42.9274 52.6687 42.929ZM36.8537 59.8374C33.6835 62.0772 31.138 65.9402 30.152 71.5981C29.1967 77.0817 30.7019 80.7853 33.3657 83.3093C36.0296 85.8335 40.0281 87.1303 44.0883 87.0775C48.1489 87.0248 52.1982 85.6168 54.9208 83.0458C57.6437 80.4747 59.1835 76.8186 58.3103 71.587C57.4073 66.1805 55.0759 62.4204 52.1245 60.1447C47.1179 62.7913 40.858 62.2288 36.8537 59.8371V59.8374Z" fill="url(#paint0_linear_886_8109)"/>
<defs>
<linearGradient id="paint0_linear_886_8109" x1="-28.889" y1="-18.9664" x2="68.1891" y2="145.177" gradientUnits="userSpaceOnUse">
<stop offset="0.010174" stop-color="#02DB5B"/>
<stop offset="0.996912" stop-color="#4977C1"/>
</linearGradient>
</defs>
</svg>
