<svg width="60" height="60" viewBox="0 0 72 73" fill="none" xmlns="http://www.w3.org/2000/svg">
<path d="M24.7499 38.375L15.3749 47.75L24.7499 57.125L34.1249 47.75L24.7499 38.375ZM47.2499 0.875C41.0982 0.875099 35.1741 3.20123 30.6658 7.38678C26.1575 11.5723 23.3986 17.3077 22.9424 23.4425C18.2883 23.7885 13.8313 25.4633 10.1011 28.268C6.37089 31.0727 3.52425 34.8893 1.89944 39.2643C0.274636 43.6393 -0.0600341 48.3888 0.935201 52.9484C1.93044 57.508 4.21374 61.6861 7.51379 64.9861C10.8138 68.2862 14.9919 70.5695 19.5515 71.5647C24.1112 72.56 28.8607 72.2253 33.2357 70.6005C37.6107 68.9757 41.4273 66.1291 44.2319 62.3988C47.0366 58.6686 48.7114 54.2116 49.0574 49.5575C55.3471 49.0884 61.2102 46.1996 65.4144 41.4981C69.6187 36.7966 71.8369 30.6484 71.6029 24.3456C71.3689 18.0428 68.7009 12.0761 64.1595 7.69926C59.6182 3.32245 53.5571 0.876357 47.2499 0.875ZM48.4612 42.0838C47.4107 37.7041 45.169 33.7004 41.9843 30.5156C38.7996 27.3309 34.7959 25.0893 30.4162 24.0387C30.6488 20.813 31.8035 17.7219 33.7428 15.1337C35.6821 12.5455 38.3243 10.569 41.3549 9.4397C44.3855 8.31036 47.6768 8.07569 50.8369 8.76363C53.9971 9.45156 56.893 11.0331 59.1799 13.32C61.4668 15.6069 63.0484 18.5028 63.7363 21.663C64.4242 24.8232 64.1896 28.1144 63.0602 31.145C61.9309 34.1756 59.9545 36.8178 57.3662 38.7571C54.778 40.6964 51.687 41.8511 48.4612 42.0838ZM41.6249 47.75C41.6249 52.2255 39.847 56.5177 36.6824 59.6824C33.5177 62.8471 29.2255 64.625 24.7499 64.625C20.2744 64.625 15.9822 62.8471 12.8175 59.6824C9.65284 56.5177 7.87494 52.2255 7.87494 47.75C7.87494 43.2745 9.65284 38.9823 12.8175 35.8176C15.9822 32.6529 20.2744 30.875 24.7499 30.875C29.2255 30.875 33.5177 32.6529 36.6824 35.8176C39.847 38.9823 41.6249 43.2745 41.6249 47.75ZM2.24994 17.75C2.24994 13.7718 3.83029 9.95644 6.64334 7.1434C9.45638 4.33035 13.2717 2.75 17.2499 2.75H22.8749V10.25H17.2499C15.2608 10.25 13.3532 11.0402 11.9466 12.4467C10.5401 13.8532 9.74994 15.7609 9.74994 17.75V23.375H2.24994V17.75ZM62.2499 55.25V49.625H69.7499V55.25C69.7499 59.2282 68.1696 63.0436 65.3565 65.8566C62.5435 68.6696 58.7282 70.25 54.7499 70.25H49.1249V62.75H54.7499C56.7391 62.75 58.6467 61.9598 60.0532 60.5533C61.4598 59.1468 62.2499 57.2391 62.2499 55.25Z" fill="url(#paint0_linear_886_7963)"/>
<defs>
<linearGradient id="paint0_linear_886_7963" x1="-27.0998" y1="-18.7424" x2="56.242" y2="121.62" gradientUnits="userSpaceOnUse">
<stop offset="0.010174" stop-color="#02DB5B"/>
<stop offset="0.996912" stop-color="#4977C1"/>
</linearGradient>
</defs>
</svg>
