<svg width="60" height="60" viewBox="0 0 72 91" fill="none" xmlns="http://www.w3.org/2000/svg">
<path d="M0.5 32.375H17.375C20.856 32.375 24.1944 30.9922 26.6558 28.5308C29.1172 26.0694 30.5 22.731 30.5 19.25H47.375M58.625 19.25H69.875V21.125C69.875 24.1087 68.6897 26.9702 66.58 29.08C64.4702 31.1897 61.6087 32.375 58.625 32.375H43.625H63.3125C65.053 32.375 66.7222 33.0664 67.9529 34.2971C69.1836 35.5278 69.875 37.197 69.875 38.9375C69.875 40.678 69.1836 42.3472 67.9529 43.5779C66.7222 44.8086 65.053 45.5 63.3125 45.5H54.875H59.5625C60.4243 45.5 61.2777 45.6697 62.0739 45.9995C62.8701 46.3293 63.5935 46.8127 64.2029 47.4221C64.8123 48.0315 65.2957 48.7549 65.6255 49.5511C65.9553 50.3473 66.125 51.2007 66.125 52.0625C66.125 52.9243 65.9553 53.7777 65.6255 54.5739C65.2957 55.3701 64.8123 56.0935 64.2029 56.7029C63.5935 57.3123 62.8701 57.7957 62.0739 58.1255C61.2777 58.4553 60.4243 58.625 59.5625 58.625H54.875H55.8125C57.553 58.625 59.2222 59.3164 60.4529 60.5471C61.6836 61.7778 62.375 63.447 62.375 65.1875C62.375 66.928 61.6836 68.5972 60.4529 69.8279C59.2222 71.0586 57.553 71.75 55.8125 71.75H0.5M53 32.375V0.5M53 90.5V71.75" stroke="url(#paint0_linear_886_7976)" stroke-width="3.75"/>
<defs>
<linearGradient id="paint0_linear_886_7976" x1="-26.2531" y1="-24.2797" x2="89.6767" y2="126.234" gradientUnits="userSpaceOnUse">
<stop offset="0.010174" stop-color="#02DB5B"/>
<stop offset="0.996912" stop-color="#4977C1"/>
</linearGradient>
</defs>
</svg>
