<svg width="41" height="41" viewBox="0 0 41 41" fill="none" xmlns="http://www.w3.org/2000/svg">
<path d="M30.5503 0.675598C28.7425 0.850851 27.2801 1.40165 25.8178 2.4732C25.5875 2.63844 23.9398 4.24576 21.5711 6.60417C17.144 11.0206 17.3794 10.7401 17.3794 11.5663C17.3844 11.9219 17.4044 12.0671 17.4946 12.2573C17.8151 12.9734 18.411 13.3539 19.1923 13.3539C19.5479 13.3539 19.653 13.3339 19.9335 13.2037C20.2339 13.0635 20.5545 12.7531 24.0049 9.31308C26.0682 7.26012 27.9011 5.46753 28.0764 5.33233C28.6223 4.91673 29.4185 4.56622 30.1798 4.40098C30.7256 4.28081 31.7472 4.28081 32.3031 4.39097C34.4716 4.83161 36.1242 6.489 36.5699 8.66214C36.6851 9.21795 36.6851 10.2394 36.5649 10.7852C36.4197 11.4612 36.1392 12.1322 35.7536 12.733C35.4832 13.1486 26.559 22.0815 26.0832 22.412C25.6175 22.7325 25.0065 23.0229 24.4406 23.1831C23.8898 23.3434 22.773 23.4085 22.162 23.3133C21.0753 23.1431 20.1188 22.6724 19.2474 21.8712C19.0571 21.701 18.7766 21.5007 18.6214 21.4256C18.371 21.3054 18.2708 21.2854 17.8802 21.2854C17.4896 21.2904 17.3894 21.3054 17.129 21.4306C16.2977 21.8312 15.872 22.7775 16.1525 23.6087C16.2927 24.0344 16.5431 24.3548 17.0589 24.7905C18.5513 26.0473 20.0837 26.7283 21.8966 26.9386C24.2103 27.209 26.3587 26.6632 28.2717 25.3262C28.6623 25.0508 29.5838 24.1545 33.3448 20.4091C35.8738 17.8855 38.0773 15.6623 38.2325 15.472C38.8786 14.6808 39.3193 13.9348 39.6798 13.0184C40.6264 10.62 40.5012 7.92608 39.3293 5.61274C38.4429 3.84518 36.9355 2.37806 35.1577 1.52683C33.7905 0.875889 31.9876 0.540403 30.5503 0.675598Z" fill="white"/>
<path d="M16.4272 14.3705C14.7546 14.5908 13.172 15.2818 11.87 16.3534C11.6797 16.5086 9.46615 18.6967 6.95716 21.2154C3.67194 24.5101 2.30477 25.9122 2.06438 26.2376C0.446814 28.4358 -0.0890376 31.2699 0.607069 33.9238C1.15794 36.0268 2.48004 37.8845 4.30795 39.1163C7.33276 41.1642 11.4643 41.1542 14.439 39.0962C15.1101 38.6306 15.5909 38.1749 19.2617 34.4896C23.4934 30.2434 23.238 30.5539 23.233 29.7427C23.233 29.3521 23.213 29.252 23.0878 28.9966C22.9025 28.6061 22.587 28.2956 22.1814 28.1053C21.9059 27.9752 21.8007 27.9551 21.4402 27.9551C21.0896 27.9551 20.9644 27.9802 20.699 28.0953C20.4035 28.2255 20.1331 28.4859 16.5274 32.0711C13.6879 34.9002 12.5811 35.9717 12.3207 36.137C10.6731 37.2135 8.53467 37.3087 6.80191 36.3773C5.39968 35.6262 4.37806 34.2693 4.06256 32.742C3.74706 31.2499 4.09261 29.6075 4.96399 28.4508C5.31956 27.9752 13.9833 19.3026 14.429 18.9721C15.0951 18.4814 15.9765 18.1109 16.7627 17.9957C17.4138 17.9006 18.5255 17.9607 19.0814 18.1259C19.9278 18.3713 20.6439 18.7719 21.31 19.3777C21.5303 19.573 21.8208 19.7833 22.0111 19.8684C22.7523 20.2189 23.6938 19.9786 24.1845 19.3076C24.4349 18.9671 24.5802 18.4965 24.5501 18.1259C24.5101 17.6202 24.3398 17.2697 23.9391 16.8691C22.0361 14.9513 19.1966 14.01 16.4272 14.3705Z" fill="white"/>
</svg>
