<svg width="36" height="24" viewBox="0 0 36 24" fill="none" xmlns="http://www.w3.org/2000/svg">
<path d="M7.93324 0.134775C7.64418 0.267588 7.30824 0.619148 7.19887 0.908212C7.01137 1.4004 7.12074 2.0879 7.44887 2.43165C7.83949 2.85352 7.95668 2.87696 9.96449 2.91602L11.8395 2.95509L13.8004 9.4004C14.8786 12.9473 15.8161 15.9707 15.8786 16.127C15.9411 16.2832 16.1286 16.5098 16.2926 16.6348L16.5895 16.8613L23.3551 16.8848C28.0817 16.9004 30.1832 16.877 30.3239 16.8223C30.8395 16.6035 30.9489 16.3848 33.1286 11.2129C34.4879 7.99415 35.2614 6.05665 35.2926 5.81446C35.3473 5.33009 35.1286 4.81446 34.7223 4.50977L34.4332 4.28321L27.7457 4.25977C24.0661 4.25196 20.9411 4.25977 20.8004 4.28321C20.4879 4.3379 20.0114 4.74415 19.8786 5.08009C19.7379 5.40821 19.7379 5.9004 19.8786 6.22071C20.027 6.57227 20.4567 6.94727 20.8239 7.04884C21.0348 7.10352 22.8551 7.13477 26.3942 7.13477C31.3707 7.13477 31.652 7.14259 31.6129 7.26759C31.5895 7.34571 30.9411 8.9004 30.1676 10.7285L28.777 14.0488L23.5114 14.0645L18.2457 14.0879L16.2301 7.42384C14.402 1.38477 14.1911 0.74415 13.9645 0.501963C13.5192 0.0332127 13.4645 0.0254002 10.6911 0.0254002C8.75355 0.0332127 8.11293 0.0566502 7.93324 0.134775Z" fill="white"/>
<path d="M0.824219 8.50977C0.308594 8.77539 0.00390625 9.26758 0.00390625 9.83008C0.00390625 10.1816 0.222656 10.6973 0.441406 10.9004C0.855469 11.2676 0.964844 11.2754 4.66797 11.2754C6.84766 11.2754 8.27734 11.2441 8.45703 11.1895C9.07422 11.0254 9.54297 10.2363 9.42578 9.58008C9.33984 9.13477 9.02734 8.70508 8.65234 8.5332C8.34766 8.40039 8.08984 8.38477 4.69141 8.38477C1.55078 8.38477 1.02734 8.40039 0.824219 8.50977Z" fill="white"/>
<path d="M2.77734 14.2285C1.78516 14.8379 1.78516 16.1895 2.77734 16.7598L3.08984 16.9395H6.76172C10.082 16.9395 10.457 16.9238 10.6758 16.8066C11.6445 16.2754 11.7305 14.9473 10.8398 14.291C10.6211 14.127 10.5352 14.127 6.81641 14.1035C3.21484 14.0879 2.99609 14.0957 2.77734 14.2285Z" fill="white"/>
<path d="M15.4724 19.4472C15.3239 19.5097 15.0817 19.6738 14.9411 19.8144C13.4489 21.2441 14.8552 23.6894 16.8317 23.1191C17.6911 22.8691 18.2067 22.1738 18.2067 21.2675C18.2067 20.0878 17.4411 19.3222 16.2536 19.33C15.9724 19.33 15.6208 19.3847 15.4724 19.4472Z" fill="white"/>
<path d="M29.3243 19.5175C28.3712 19.9941 28.004 21.1816 28.504 22.1425C29.4102 23.8769 31.9962 23.3769 32.1681 21.4394C32.2462 20.5879 31.8165 19.8066 31.0665 19.4707C30.5821 19.2519 29.8243 19.2754 29.3243 19.5175Z" fill="white"/>
</svg>
