<svg width="41" height="40" viewBox="0 0 41 40" fill="none" xmlns="http://www.w3.org/2000/svg">
<path d="M12.3617 11.4983H31.7221L26.8028 16.4177C26.1253 17.0943 26.1253 18.1925 26.8028 18.8705C27.1416 19.2093 27.5851 19.3786 28.029 19.3786C28.473 19.3786 28.9165 19.2088 29.2553 18.8705L37.1352 10.991C37.2152 10.911 37.287 10.8225 37.3507 10.7288C37.3666 10.7042 37.378 10.6765 37.3925 10.6514C37.4352 10.5801 37.4779 10.5084 37.5105 10.4314C37.5254 10.3949 37.5325 10.3557 37.5457 10.3183C37.569 10.2488 37.5949 10.1802 37.6099 10.1071C37.6328 9.99495 37.6446 9.88056 37.6446 9.76396C37.6446 9.64737 37.6328 9.53297 37.6099 9.42078C37.5954 9.34775 37.5694 9.27867 37.5457 9.2096C37.5325 9.1722 37.5263 9.13348 37.5105 9.09652C37.4775 9.01953 37.4361 8.94825 37.3925 8.87654C37.378 8.85146 37.3666 8.82374 37.3507 8.79911C37.2869 8.70495 37.2152 8.61696 37.1352 8.53689L29.2571 0.658799C28.5795 -0.0187533 27.4822 -0.0187533 26.8043 0.658799C26.1267 1.33547 26.1267 2.43366 26.8043 3.1116L31.7223 8.03004H12.3618C5.98582 8.03004 0.797852 13.2178 0.797852 19.594C0.797852 20.5523 1.5744 21.3283 2.53217 21.3283C3.49042 21.3283 4.26649 20.5518 4.26649 19.594C4.26693 15.1296 7.89798 11.4981 12.362 11.4981L12.3617 11.4983ZM39.0635 18.7569C38.1053 18.7569 37.3292 19.5335 37.3292 20.4913C37.3292 24.9552 33.6982 28.5863 29.2342 28.5863L9.87379 28.5867L14.7931 23.6674C15.4707 22.9907 15.4707 21.8925 14.7931 21.2146C14.1156 20.5366 13.0183 20.537 12.3403 21.2146L4.46044 29.0945C4.38036 29.1745 4.30864 29.263 4.24485 29.3567C4.22989 29.3804 4.21889 29.4073 4.20525 29.431C4.16169 29.5028 4.11814 29.5753 4.08602 29.6541C4.0715 29.6902 4.06446 29.7285 4.05126 29.765C4.02794 29.8349 4.00154 29.9045 3.98615 29.9784C3.96327 30.0906 3.95139 30.2049 3.95139 30.3215C3.95139 30.4381 3.96327 30.5525 3.98615 30.6647C4.00067 30.7386 4.02706 30.8077 4.05126 30.8781C4.06446 30.9146 4.07062 30.9533 4.08602 30.989C4.11902 31.0673 4.16169 31.1399 4.20525 31.212C4.21933 31.2358 4.22989 31.2626 4.24485 31.2864C4.30864 31.3806 4.38036 31.4686 4.46044 31.5486L12.339 39.4272C12.6778 39.7659 13.1212 39.9353 13.5652 39.9353C14.0092 39.9353 14.4526 39.7655 14.7914 39.4272C15.469 38.7505 15.469 37.6523 14.7914 36.9744L9.87345 32.0559H29.2339C35.6099 32.0559 40.7979 26.8682 40.7979 20.4919C40.7983 19.5337 40.0217 18.7572 39.0639 18.7572L39.0635 18.7569Z" fill="white"/>
</svg>
