<svg width="41" height="41" viewBox="0 0 41 41" fill="none" xmlns="http://www.w3.org/2000/svg">
<path d="M8.61816 0.121094C6.2041 0.628906 4.27441 2.39453 3.5166 4.80859C3.36035 5.32422 3.33691 5.55078 3.33691 6.68359C3.33691 7.81641 3.36035 8.04297 3.5166 8.55859C4.21191 10.7617 5.86035 12.4102 8.06348 13.1055C8.5791 13.2617 8.80566 13.2852 9.93848 13.2852C11.0713 13.2852 11.2979 13.2617 11.8135 13.1055C14.001 12.418 15.6729 10.7461 16.3604 8.55859C16.5166 8.04297 16.54 7.81641 16.54 6.68359C16.54 5.55078 16.5166 5.32422 16.3604 4.80859C15.8057 3.05078 14.6182 1.59766 13.0635 0.792969C11.9541 0.222656 11.4854 0.105469 10.1338 0.0742188C9.49316 0.0585938 8.80566 0.0820312 8.61816 0.121094ZM11.04 2.58984C11.7744 2.80859 12.376 3.16797 12.915 3.70703C13.751 4.54297 14.1572 5.51172 14.1572 6.68359C14.1572 7.85547 13.751 8.82422 12.915 9.66016C12.0791 10.4961 11.1104 10.9023 9.93848 10.9023C8.7666 10.9023 7.79785 10.4961 6.96191 9.66016C6.12598 8.82422 5.71973 7.85547 5.71973 6.68359C5.71973 4.80078 6.90723 3.21484 8.7666 2.61328C9.3291 2.43359 10.4619 2.41797 11.04 2.58984Z" fill="white"/>
<path d="M27.5557 0.160156C25.7979 0.472656 24.0635 1.21484 22.6729 2.26172C21.8525 2.87109 20.665 4.10547 20.1182 4.89453C19.2979 6.08984 18.6338 7.63672 18.3213 9.10547C18.1182 10.0508 18.1182 12.6914 18.3213 13.6367C18.6338 15.0977 19.29 16.6367 20.1182 17.8555C20.6807 18.6758 22.251 20.2305 23.0635 20.7617C24.3682 21.6211 25.7354 22.1992 27.2197 22.5195C28.1494 22.7227 30.7979 22.7227 31.7354 22.5195C33.1963 22.207 34.7354 21.5508 35.9541 20.7227C36.7744 20.1602 38.3291 18.5898 38.8604 17.7773C39.7197 16.4727 40.3057 15.0898 40.6182 13.6367C40.8213 12.6914 40.8213 10.0508 40.6182 9.10547C40.3057 7.64453 39.6494 6.10547 38.8291 4.90234C38.251 4.05078 36.6963 2.51953 35.8369 1.94922C34.6104 1.13672 33.2432 0.550781 31.8135 0.238281C31.001 0.0585938 28.415 0.0117188 27.5557 0.160156ZM30.876 2.55078C34.4932 3.07422 37.5479 6.05078 38.2588 9.76172C38.4072 10.5508 38.4072 12.1914 38.2588 12.9805C37.5635 16.6133 34.7119 19.4648 31.0791 20.1602C30.2588 20.3164 28.6807 20.3164 27.8604 20.1602C24.6025 19.543 21.915 17.1445 20.9307 13.9883C20.6182 12.9961 20.54 12.293 20.5869 11.0039C20.6416 9.32422 21.0244 8.05078 21.9072 6.61328C22.4697 5.70703 23.8057 4.37109 24.7119 3.80859C26.6025 2.64453 28.6416 2.23047 30.876 2.55078Z" fill="white"/>
<path d="M28.8369 4.56641C28.6416 4.76953 28.6104 4.85547 28.6104 5.25391V5.70703L28.2197 5.84766C27.4541 6.12109 26.8135 6.77734 26.501 7.59766C26.3604 7.97266 26.3369 8.17578 26.3604 8.79297C26.3838 9.44922 26.415 9.58984 26.626 9.96484C26.8916 10.4414 27.3682 10.8398 28.1182 11.2383L28.6104 11.4883V13.4258V15.3711L28.3604 15.3164C28.2197 15.2852 27.8916 15.1445 27.6338 15.0039C26.9463 14.6289 26.6025 14.6133 26.2588 14.957C26.0791 15.1367 26.0322 15.2539 26.0322 15.5195C26.0322 15.7852 26.0791 15.8867 26.29 16.0898C26.6494 16.4258 27.4775 16.8164 28.0947 16.9258L28.6104 17.0195V17.4805C28.6104 17.8867 28.6416 17.9727 28.8369 18.1758C29.0166 18.3555 29.1338 18.4023 29.3916 18.4023C29.5713 18.4023 29.7822 18.3633 29.876 18.3164C30.0869 18.1992 30.251 17.7773 30.251 17.3164V16.9336L30.6338 16.8008C31.4619 16.5273 32.1963 15.8164 32.6572 14.8398C32.8447 14.4258 32.8682 14.293 32.8682 13.5195C32.8682 12.7539 32.8447 12.6133 32.665 12.2305C32.29 11.4336 31.6885 10.8945 30.7822 10.5586L30.29 10.3711L30.2666 8.87891C30.2432 7.23047 30.2588 7.20703 30.7041 7.58203C31.1963 7.99609 31.6729 8.00391 32.0088 7.60547C32.2979 7.26953 32.2744 6.84766 31.9541 6.48828C31.6807 6.17578 30.9854 5.78516 30.54 5.70703C30.2666 5.65234 30.251 5.63672 30.251 5.34766C30.251 4.95703 30.0791 4.53516 29.876 4.42578C29.7822 4.37891 29.5713 4.33984 29.3916 4.33984C29.1338 4.33984 29.0166 4.38672 28.8369 4.56641ZM28.5791 9.55078C28.5557 9.57422 28.4541 9.52734 28.3447 9.44141C27.8369 9.07422 27.8447 8.21484 28.3604 7.67578L28.5713 7.45703L28.5947 8.48828C28.6025 9.05078 28.6025 9.53516 28.5791 9.55078ZM30.6963 12.3789C31.2588 12.7852 31.4229 13.6602 31.0713 14.332C30.9385 14.5977 30.4385 15.1211 30.3291 15.1211C30.2822 15.1211 30.251 14.543 30.251 13.6367C30.251 12.8164 30.2822 12.1523 30.3135 12.1523C30.3525 12.1523 30.5244 12.2539 30.6963 12.3789Z" fill="white"/>
<path d="M1.31348 20.6602C1.19629 20.7383 1.02441 20.9102 0.946289 21.0273C0.805664 21.2461 0.797852 21.5508 0.797852 29.4961C0.797852 37.4414 0.805664 37.7461 0.946289 37.9648C1.02441 38.082 1.19629 38.2539 1.31348 38.332C1.52441 38.4727 1.74316 38.4805 5.21191 38.4805C8.68066 38.4805 8.89941 38.4727 9.11035 38.332C9.42285 38.1211 9.61035 37.8086 9.66504 37.3711C9.69629 37.168 9.75098 36.9961 9.79785 36.9961C9.83691 36.9961 11.6572 37.543 13.8291 38.207C19.7744 40.0195 19.6807 40.0039 22.5557 40.0039C24.165 40.0039 24.7432 39.9727 25.3291 39.8633C27.2119 39.5117 28.9697 38.918 30.4541 38.1367C31.626 37.5117 39.3604 32.4883 39.7979 32.0586C40.04 31.8242 40.2822 31.4727 40.4697 31.082C40.7275 30.543 40.7588 30.3945 40.7822 29.7227C40.8291 28.582 40.5635 27.793 39.8838 27.0664C39.1572 26.293 38.2666 25.9023 37.2119 25.9023C36.876 25.9023 36.4229 25.957 36.1963 26.0273C35.9697 26.0898 34.0557 26.9727 31.9541 27.9805C29.8447 28.9883 28.1104 29.8008 28.0947 29.793C28.0869 29.7773 28.04 29.4883 27.9932 29.1445C27.79 27.6836 26.7432 26.3789 25.4229 25.9492C25.2197 25.8789 23.8682 25.6133 22.4072 25.3555C20.5557 25.0273 19.6416 24.832 19.3604 24.707C19.1416 24.5977 18.6807 24.2852 18.3369 23.9961C17.1963 23.0352 16.0557 22.4414 14.6494 22.0664C13.6963 21.8086 11.79 21.7695 10.7432 21.9883C10.3057 22.082 9.89941 22.1758 9.83691 22.1992C9.75098 22.2305 9.71191 22.1289 9.68066 21.7617C9.61816 21.1992 9.44629 20.8711 9.11035 20.6602C8.87598 20.5195 8.68848 20.5117 5.2041 20.5117C1.74316 20.5117 1.52441 20.5195 1.31348 20.6602ZM7.28223 29.4961V36.1367H5.21191H3.1416V29.4961V22.8555H5.21191H7.28223V29.4961ZM13.9775 24.418C15.0791 24.6836 15.8447 25.0898 16.8838 25.9648C18.1182 27.0039 18.4619 27.1289 21.751 27.707C23.6494 28.0352 24.5322 28.2305 24.7822 28.3555C25.7197 28.8242 25.8838 30.0898 25.0947 30.7695C24.4775 31.293 24.6025 31.3008 20.3604 30.5508C17.1416 29.9805 16.5322 29.8945 16.2822 29.9648C15.915 30.0664 15.7822 30.1758 15.5713 30.5117C15.2197 31.0898 15.4385 31.8711 16.0322 32.1758C16.3525 32.3398 23.1885 33.5586 24.126 33.6133C24.79 33.6602 25.5713 33.5586 26.2275 33.3477C26.4463 33.2852 28.9307 32.1211 31.751 30.7773C37.3057 28.1211 37.2588 28.1445 37.8135 28.4805C38.5635 28.9414 38.5713 29.9727 37.8135 30.5352C37.0791 31.082 29.8682 35.6758 29.1963 36.0273C27.1025 37.1133 24.915 37.6367 22.4775 37.6289C21.1729 37.6211 20.1494 37.5039 19.0713 37.2305C18.7197 37.1367 16.4854 36.4727 14.1025 35.7383C11.7197 35.0117 9.75879 34.418 9.73535 34.418C9.71973 34.418 9.7041 32.2695 9.7041 29.6445V24.8789L10.0557 24.7227C11.1338 24.2461 12.7432 24.1211 13.9775 24.418Z" fill="white"/>
</svg>
