<svg width="41" height="41" viewBox="0 0 41 41" fill="none" xmlns="http://www.w3.org/2000/svg">
<path d="M40.7979 10.9495C40.7966 10.6136 40.7029 10.2848 40.5263 9.99895C40.3497 9.71336 40.0973 9.48197 39.7974 9.33095L21.6108 0.237278C21.0959 -0.0221264 20.4888 -0.0221264 19.974 0.237278L1.78742 9.33095C1.38826 9.53555 1.07862 9.88021 0.918192 10.2992C0.757738 10.7178 0.757738 11.1812 0.918192 11.6001C1.07865 12.0191 1.38829 12.3637 1.78742 12.5683L7.62523 15.4964L1.78742 18.4244C1.38826 18.6287 1.07862 18.9737 0.918192 19.3923C0.757738 19.8112 0.757738 20.2746 0.918192 20.6936C1.07865 21.1122 1.38829 21.4572 1.78742 21.6615L7.62523 24.5895L1.78742 27.5175C1.38826 27.7221 1.07862 28.0668 0.918192 28.4857C0.757769 28.9047 0.757738 29.3681 0.918192 29.7867C1.07865 30.2056 1.38829 30.5503 1.78742 30.7549L19.974 39.8486C20.4888 40.108 21.096 40.108 21.6108 39.8486L39.7974 30.7549C40.1965 30.5503 40.5062 30.2056 40.6666 29.7867C40.8271 29.368 40.8271 28.9047 40.6666 28.4857C40.5061 28.0668 40.1965 27.7221 39.7974 27.5175L33.9595 24.5895L39.7974 21.6615C40.1965 21.4572 40.5062 21.1122 40.6666 20.6936C40.8271 20.2746 40.8271 19.8112 40.6666 19.3923C40.5061 18.9737 40.1965 18.6287 39.7974 18.4244L33.9595 15.4964L39.7974 12.5683C40.0973 12.417 40.3497 12.1859 40.5263 11.9C40.7029 11.6144 40.7966 11.2853 40.7979 10.9495ZM34.9052 29.1368L20.7919 36.1931L6.67869 29.1368L11.6981 26.6268L19.9734 30.7551V30.7554C20.4882 31.0148 21.0954 31.0148 21.6102 30.7554L29.8854 26.6268L34.9052 29.1368ZM34.9052 20.0431L20.7919 27.0998L6.67869 20.0431L11.6981 17.5334L19.9734 21.6617C20.4882 21.9211 21.0954 21.9211 21.6102 21.6617L29.8854 17.5334L34.9052 20.0431ZM20.7919 18.0062L6.67869 10.9496L20.7919 3.89332L34.9052 10.9496L20.7919 18.0062Z" fill="white"/>
</svg>
