<svg width="40" height="39" viewBox="0 0 40 39" fill="none" xmlns="http://www.w3.org/2000/svg">
<path d="M12.1626 28.3659C8.89718 27.6219 6.02106 25.6991 4.0848 22.9661C2.14895 20.2332 1.28919 16.8821 1.67047 13.5544C2.05177 10.2267 3.64756 7.15713 6.15173 4.93312C8.65581 2.70893 11.8925 1.48679 15.2419 1.50087C18.5911 1.51493 21.8175 2.76424 24.3026 5.00921C26.7882 7.25442 28.3577 10.3374 28.7112 13.6682C28.7528 14.0635 29.1069 14.3505 29.5023 14.309C29.8976 14.2674 30.1846 13.9133 30.1431 13.5179C29.7487 9.8386 28.0113 6.43418 25.2636 3.9557C22.5156 1.47714 18.9504 0.0992987 15.2505 0.085553C11.5501 0.0718098 7.97499 1.42314 5.20884 3.88092C2.4426 6.33869 0.679963 9.73003 0.258102 13.4063C-0.163457 17.0828 0.785135 20.7852 2.92296 23.8056C5.0605 26.8259 8.23706 28.9519 11.8446 29.7766C11.8976 29.7877 11.9516 29.7938 12.0057 29.7944C12.4013 29.8379 12.757 29.5528 12.8005 29.1571C12.844 28.7618 12.5586 28.4061 12.1632 28.3626L12.1626 28.3659Z" fill="white"/>
<path d="M15.5417 6.20416C15.3202 6.07632 15.0472 6.07632 14.8258 6.20416L7.66655 10.3386C7.44539 10.4664 7.30891 10.7023 7.30859 10.958V19.2234C7.30891 19.4791 7.44539 19.7149 7.66655 19.8428L14.8258 23.9772C15.0472 24.105 15.3202 24.105 15.5417 23.9772L22.7009 19.8428C22.9221 19.7149 23.0585 19.4791 23.0589 19.2234V10.958C23.0585 10.7023 22.9221 10.4664 22.7009 10.3386L15.5417 6.20416ZM15.1837 7.636L21.0508 11.0223L15.1837 14.4264L9.31669 11.0366L15.1837 7.636ZM8.74044 12.3611L14.4678 15.6652V22.1085L8.74044 18.8114V12.3611ZM15.8996 22.1156V15.6723L21.627 12.3682V18.8115L15.8996 22.1156Z" fill="white"/>
<path d="M36.6619 30.3992C38.5124 27.4853 39.3396 25.6348 39.1283 24.901C39.0772 24.7246 38.9608 24.5747 38.8026 24.482L38.3264 24.2026C38.5482 21.6253 38.6844 18.6149 38.2619 17.9025V17.9028C38.1577 17.7338 37.9876 17.6158 37.793 17.5768L37.1237 17.4372C36.637 16.0053 35.9102 14.3875 35.0367 14.1047C34.106 13.8004 32.173 14.8564 30.6124 15.8945L29.7568 15.5579V15.5582C29.5963 15.4985 29.4199 15.4985 29.2592 15.5582C28.4646 15.8337 26.8321 18.1106 25.5293 20.0973L24.5772 20.1114C24.3346 20.1239 24.1147 20.2588 23.9936 20.4694C23.496 21.2713 23.1489 24.4964 23.231 26.5224C21.6953 25.8995 19.9844 25.3268 19.2577 25.5236H19.258C19.0365 25.576 18.8534 25.7301 18.7639 25.9391L18.4989 26.6336C14.7726 27.6609 14.4252 28.2479 14.3073 28.4234C14.1891 28.5989 13.8276 29.2359 14.9875 32.6509L14.5077 33.4885V33.4882C14.3546 33.7567 14.3907 34.0929 14.5972 34.3224C15.2738 35.0741 17.9729 36.4701 19.1363 37.0717L19.0897 38.0739C19.0714 38.359 19.2248 38.6281 19.4799 38.7576C20.1501 38.9516 20.8487 39.0305 21.5452 38.9903C23.335 38.9903 25.7691 38.6895 26.7858 37.8269C27.6519 37.111 28.2391 36.6635 28.597 36.4165C29.3702 36.8818 30.1219 37.3616 30.7985 37.8483C31.1219 38.0765 31.5691 37.9998 31.7972 37.6764C32.0258 37.3532 31.9487 36.9061 31.6256 36.6779C30.9599 36.2126 30.2366 35.7472 29.4779 35.2962C29.4779 35.1495 29.4779 34.899 29.4421 34.5266C30.8739 34.3227 35.0048 33.5959 36.7017 31.8777L36.7013 31.8774C36.8864 31.6888 36.9526 31.4136 36.8733 31.1615L36.6619 30.3992ZM22.0424 32.9298C22.0817 32.9298 24.5804 34.1181 27.2471 35.6289C26.8892 35.9009 26.4273 36.2589 25.869 36.7351C24.999 37.451 21.8528 37.6479 20.5676 37.544L20.6069 36.6884C20.6169 36.4021 20.4548 36.1371 20.1953 36.0157C18.7727 35.3311 17.392 34.5624 16.0609 33.7138L16.4188 33.1162C16.5237 32.9359 16.5444 32.7189 16.476 32.5217C16.043 31.2797 15.6169 29.7331 15.6061 29.1926C16.1002 28.8919 17.8145 28.3191 19.2537 27.9328C19.4755 27.873 19.6555 27.7107 19.737 27.4962L19.9518 26.927C20.7965 27.081 22.7547 27.8219 24.3655 28.5557C24.6356 28.6778 24.953 28.6209 25.1639 28.4125L25.6436 27.9401C26.3989 28.3195 27.7233 29.8373 27.8918 32.1855C27.9634 33.1769 28.01 33.9107 28.0385 34.4336C25.3359 32.9014 22.8123 31.7202 22.6691 31.6486H22.6688C22.4965 31.5636 22.297 31.5514 22.1158 31.615C21.9343 31.6786 21.786 31.8125 21.7045 31.9864C21.6227 32.1603 21.6144 32.3597 21.6812 32.54C21.7483 32.7202 21.8848 32.866 22.0602 32.9443L22.0424 32.9298ZM29.3806 33.0801C29.3592 32.7758 29.3378 32.4428 29.309 32.0707V31.9346V31.9349C29.9763 28.7449 31.1253 25.6757 32.7169 22.8317C32.8214 22.6671 32.8544 22.4667 32.808 22.2771C32.7617 22.0876 32.6399 21.9253 32.4708 21.8278C32.3021 21.73 32.1004 21.7057 31.9131 21.76C31.7258 21.8144 31.5686 21.9428 31.4781 22.1157C30.2205 24.3348 29.2294 26.6944 28.525 29.1462C27.7518 27.582 26.5596 26.5152 25.511 26.4113C25.2991 26.3908 25.0895 26.4656 24.9383 26.6152L24.6948 26.8549V26.8552C24.6181 25.067 24.7577 23.2763 25.1103 21.5216L25.9658 21.4928H25.9655C26.1982 21.4838 26.4117 21.3624 26.5383 21.1671C27.6121 19.5061 28.9973 17.5875 29.6023 17.0183L30.447 17.3513H30.4473C30.6663 17.4379 30.914 17.4111 31.1096 17.2797C32.5414 16.3241 34.1235 15.4899 34.6032 15.4899C34.9145 15.7619 35.5051 17.0291 35.9027 18.2855C35.9801 18.5332 36.1856 18.7192 36.4397 18.7723L37.0875 18.9046C37.1879 19.8318 37.0875 22.3803 36.8727 24.5389C36.8484 24.8173 36.9881 25.0842 37.2307 25.2229L37.7031 25.4984C37.4416 26.3147 36.3358 28.3084 35.2977 29.9227C35.1836 30.1017 35.1549 30.3219 35.2188 30.5242L35.4157 31.1471C33.9803 32.1993 30.9664 32.8401 29.377 33.0801L29.3806 33.0801Z" fill="white"/>
</svg>
