<svg width="90" height="90" viewBox="0 0 160 90" fill="none" xmlns="http://www.w3.org/2000/svg">
<path d="M125.695 11.9927C129.352 15.6496 132.139 19.797 134.057 24.4351C135.974 29.0731 136.955 34.001 137 39.2188C137 40.7796 136.955 42.6527 136.866 44.8379C136.777 47.0231 136.599 49.3867 136.331 51.9287C136.063 54.4707 135.64 57.0796 135.06 59.7554C134.48 62.4312 133.744 65.0846 132.853 67.7158C131.515 71.5511 129.954 74.6729 128.17 77.0811C126.386 79.4893 124.535 81.3846 122.618 82.7671C120.7 84.1496 118.76 85.0861 116.798 85.5767C114.836 86.0672 113.007 86.3125 111.312 86.3125C109.841 86.3125 108.503 86.0672 107.299 85.5767C106.095 85.0861 104.935 84.4172 103.82 83.5698C102.705 82.7225 101.68 81.8083 100.743 80.8271C99.8066 79.846 98.8478 78.7757 97.8667 77.6162C96.9302 76.5459 96.016 75.5202 95.124 74.5391C94.2321 73.5579 93.2733 72.6883 92.2476 71.9302C91.2218 71.172 90.1961 70.5254 89.1704 69.9902C88.1447 69.4551 86.9406 69.1875 85.5581 69.1875H51.4419C50.1486 69.2321 48.9668 69.4997 47.8965 69.9902C46.8262 70.4808 45.7782 71.1051 44.7524 71.8633C43.7267 72.6214 42.7902 73.5133 41.9429 74.5391C41.0955 75.5648 40.159 76.5905 39.1333 77.6162C38.1968 78.6865 37.2603 79.7345 36.3237 80.7603C35.3872 81.786 34.3615 82.7225 33.2466 83.5698C32.1317 84.4172 30.9722 85.0638 29.7681 85.5098C28.564 85.9557 27.2038 86.2233 25.6875 86.3125C23.9928 86.3125 22.1644 86.0672 20.2021 85.5767C18.2399 85.0861 16.3 84.1719 14.3823 82.834C12.4647 81.4961 10.6139 79.6007 8.83008 77.1479C7.04622 74.6952 5.48535 71.5511 4.14746 67.7158C3.25553 65.1292 2.54199 62.498 2.00684 59.8223C1.47168 57.1465 1.04801 54.5153 0.73584 51.9287C0.423665 49.3421 0.222982 46.9785 0.133789 44.8379C0.0445964 42.6973 0 40.8242 0 39.2188C0 34.0456 0.958822 29.14 2.87646 24.502C4.79411 19.8639 7.60368 15.6942 11.3052 11.9927C14.9175 8.33577 19.0649 5.5485 23.7476 3.63086C28.4302 1.71322 33.3581 0.732096 38.5312 0.6875H98.4688C103.642 0.6875 108.548 1.64632 113.186 3.56396C117.824 5.48161 121.993 8.29118 125.695 11.9927ZM124.758 64.9062C125.606 62.5426 126.275 60.0898 126.765 57.5479C127.256 55.0059 127.612 52.5754 127.835 50.2563C128.058 47.9373 128.215 45.7967 128.304 43.8345C128.393 41.8722 128.438 40.3337 128.438 39.2188C128.438 35.0713 127.657 31.1914 126.096 27.5791C124.535 23.9668 122.395 20.8005 119.674 18.0801C116.954 15.3597 113.788 13.2191 110.175 11.6582C106.563 10.0973 102.661 9.2946 98.4688 9.25H38.5312C34.3838 9.25 30.5039 10.0304 26.8916 11.5913C23.2793 13.1522 20.113 15.2928 17.3926 18.0132C14.6722 20.7336 12.5316 23.8999 10.9707 27.5122C9.40983 31.1245 8.6071 35.0267 8.5625 39.2188C8.5625 40.3783 8.5848 41.9168 8.62939 43.8345C8.67399 45.7521 8.83008 47.8704 9.09766 50.1895C9.36523 52.5085 9.7443 54.9613 10.2349 57.5479C10.7254 60.1344 11.3944 62.5872 12.2417 64.9062C13.3566 68.1172 14.583 70.5923 15.9209 72.3315C17.2588 74.0708 18.5521 75.3418 19.8008 76.1445C21.0495 76.9473 22.209 77.4155 23.2793 77.5493C24.3496 77.6831 25.1523 77.75 25.6875 77.75C26.6686 77.75 27.7389 77.1702 28.8984 76.0107C30.0579 74.8512 31.3066 73.5133 32.6445 71.9971C33.7148 70.7484 34.8521 69.4774 36.0562 68.1841C37.2603 66.8908 38.6204 65.6867 40.1367 64.5718C41.653 63.4569 43.3254 62.5426 45.1538 61.8291C46.9823 61.1156 49.0114 60.7142 51.2412 60.625H85.7588C87.9886 60.7142 90.0177 61.1156 91.8462 61.8291C93.6746 62.5426 95.3247 63.4346 96.7964 64.5049C98.2681 65.5752 99.6283 66.7793 100.877 68.1172C102.126 69.4551 103.285 70.7484 104.355 71.9971C105.649 73.4688 106.875 74.7843 108.035 75.9438C109.194 77.1034 110.287 77.7054 111.312 77.75C111.848 77.75 112.628 77.6831 113.654 77.5493C114.68 77.4155 115.839 76.9473 117.132 76.1445C118.426 75.3418 119.741 74.0708 121.079 72.3315C122.417 70.5923 123.643 68.1172 124.758 64.9062ZM34.25 34.9375H42.8125V43.5H34.25V52.0625H25.6875V43.5H17.125V34.9375H25.6875V26.375H34.25V34.9375ZM111.312 43.5C112.517 43.5 113.632 43.723 114.657 44.1689C115.683 44.6149 116.575 45.217 117.333 45.9751C118.091 46.7332 118.715 47.6475 119.206 48.7178C119.697 49.7881 119.92 50.903 119.875 52.0625C119.875 53.2666 119.652 54.3815 119.206 55.4072C118.76 56.4329 118.158 57.3249 117.4 58.083C116.642 58.8411 115.728 59.4655 114.657 59.9561C113.587 60.4466 112.472 60.6696 111.312 60.625C110.108 60.625 108.993 60.402 107.968 59.9561C106.942 59.5101 106.05 58.908 105.292 58.1499C104.534 57.3918 103.91 56.4775 103.419 55.4072C102.928 54.3369 102.705 53.222 102.75 52.0625C102.75 50.8584 102.973 49.7435 103.419 48.7178C103.865 47.6921 104.467 46.8001 105.225 46.042C105.983 45.2839 106.897 44.6595 107.968 44.1689C109.038 43.6784 110.153 43.4554 111.312 43.5ZM94.1875 26.375C95.3916 26.375 96.5065 26.598 97.5322 27.0439C98.5579 27.4899 99.4499 28.092 100.208 28.8501C100.966 29.6082 101.59 30.5225 102.081 31.5928C102.572 32.6631 102.795 33.778 102.75 34.9375C102.75 36.1416 102.527 37.2565 102.081 38.2822C101.635 39.3079 101.033 40.1999 100.275 40.958C99.5168 41.7161 98.6025 42.3405 97.5322 42.8311C96.4619 43.3216 95.347 43.5446 94.1875 43.5C92.9834 43.5 91.8685 43.277 90.8428 42.8311C89.8171 42.3851 88.9251 41.783 88.167 41.0249C87.4089 40.2668 86.7845 39.3525 86.2939 38.2822C85.8034 37.2119 85.5804 36.097 85.625 34.9375C85.625 33.7334 85.848 32.6185 86.2939 31.5928C86.7399 30.5671 87.342 29.6751 88.1001 28.917C88.8582 28.1589 89.7725 27.5345 90.8428 27.0439C91.9131 26.5534 93.028 26.3304 94.1875 26.375Z" fill="white"/>
</svg>
