<svg width="111" height="125" viewBox="0 0 111 125" fill="none" xmlns="http://www.w3.org/2000/svg">
<path d="M23.3906 0.692139C18.9756 0.692139 15.0154 1.6019 12.3423 2.93979C9.69331 4.27769 8.67651 5.77612 8.67651 6.84644C8.67651 7.88999 9.69331 9.41786 12.3423 10.7263C15.0154 12.0642 18.9756 13.0007 23.3906 13.0007C27.8057 13.0007 31.7658 12.0642 34.4149 10.7263C37.0906 9.41786 38.1074 7.88999 38.1074 6.84644C38.1074 5.77612 37.0906 4.27769 34.4149 2.93979C31.7658 1.6019 27.8057 0.692139 23.3906 0.692139ZM66.2031 9.25464C61.7881 9.25464 57.8279 10.1644 55.1789 11.5023C52.5031 12.8402 51.4863 14.3386 51.4863 15.4089C51.4863 16.4525 52.5031 17.9804 55.1789 19.2888C57.8279 20.6267 61.7881 21.5606 66.2031 21.5606C67.434 21.5606 68.6113 21.4803 69.7352 21.3465C70.8858 19.8775 72.518 18.5744 74.4178 17.7074C76.6119 16.7174 79.1539 15.9147 80.9199 15.4089C80.9199 14.3386 79.9031 12.8402 77.2274 11.5023C74.5783 10.1644 70.6182 9.25464 66.2031 9.25464ZM8.67651 14.1754C8.56948 18.0981 12.8186 19.6982 15.4971 20.4902C20.2867 21.8816 26.4945 21.8816 31.2842 20.4902C34.7092 19.5109 38.0807 17.6218 38.1074 14.1754C33.7994 17.0198 27.5113 17.785 23.3906 17.8145C18.1729 17.3783 12.6929 16.8378 8.67651 14.1754ZM87.6094 19.7705C83.1944 19.7705 79.2342 20.6802 76.5852 22.0422C73.9094 23.3533 72.8926 24.8785 72.8926 25.9221C72.8926 26.9924 73.9094 28.4908 76.5852 29.8287C79.2342 31.1666 83.1944 32.0764 87.6094 32.0764C92.0244 32.0764 95.9846 31.1666 98.6336 29.8287C101.309 28.4908 102.326 26.9924 102.326 25.9221C102.326 24.8785 101.309 23.3533 98.6336 22.0422C95.9846 20.6802 92.0244 19.7705 87.6094 19.7705ZM51.4863 22.7379V23.3801C52.2623 23.6477 53.0115 23.9688 53.7072 24.3166C56.1154 25.5207 58.2025 27.2065 59.2729 29.3203C62.0022 29.9893 65.0793 30.2301 68.0762 30.0428V26.3234C67.4607 26.3502 66.8453 26.377 66.2031 26.377C61.1459 26.377 56.5436 25.3869 53.0115 23.6209C52.4764 23.3533 51.968 23.059 51.4863 22.7379ZM8.67651 22.7647C8.58554 26.6713 12.8293 28.2768 15.4971 29.0795C17.3166 29.5879 19.3502 29.9358 21.4373 30.0428C21.9725 28.6514 22.9357 27.4205 24.1666 26.377C20.7416 26.4572 17.2899 26.0291 14.1592 25.1461C12.0748 24.5307 10.2285 23.7547 8.67651 22.7647ZM40.5156 26.377C36.1006 26.377 32.1404 27.3135 29.4914 28.6246C26.8156 29.9625 25.7988 31.4609 25.7988 32.5313C25.7988 33.6016 26.8156 35.1 29.4914 36.4379C32.1404 37.7758 36.1006 38.6856 40.5156 38.6856C44.9307 38.6856 48.8908 37.7758 51.5399 36.4379C54.2156 35.1 55.2324 33.6016 55.2324 32.5313C55.2324 31.4609 54.2156 29.9625 51.5399 28.6246C48.8908 27.3135 44.9307 26.377 40.5156 26.377ZM8.67651 31.3272C8.58554 35.2338 12.8293 36.8393 15.4971 37.642C17.1828 38.1236 19.0559 38.4447 20.9824 38.5785V34.8859C18.6277 34.7254 16.3266 34.324 14.1592 33.7086C12.0748 33.0932 10.2285 32.3172 8.67651 31.3272ZM72.8926 33.2805C72.8391 37.2139 77.0133 38.7926 79.7158 39.5953C84.5055 40.9867 90.7133 40.9867 95.5029 39.5953C98.9012 38.6053 102.299 36.7322 102.326 33.2805C101.845 33.5748 101.336 33.8691 100.801 34.1367C97.269 35.9027 92.6666 36.8928 87.6094 36.8928C82.5522 36.8928 77.9498 35.9027 74.4178 34.1367C73.8826 33.8691 73.3742 33.5748 72.8926 33.2805ZM60.0488 34.4043V38.0701C62.5641 38.5785 65.3736 38.7658 68.0762 38.6053V34.9127C65.3736 35.0465 62.6443 34.8859 60.0488 34.4043ZM25.7988 39.8629C25.665 41.4684 26.3875 42.7795 27.2705 43.5555C28.3943 44.5188 30.2139 45.5088 32.6221 46.2045C37.4117 47.5692 43.6195 47.5692 48.4092 46.2045C50.8174 45.5088 52.6369 44.5188 53.7607 43.5555C55.0719 42.4584 55.2324 41.3881 55.2324 39.8629C54.7508 40.184 54.2424 40.4783 53.7072 40.7459C50.1752 42.5119 45.5729 43.502 40.5156 43.502C35.4584 43.502 30.8561 42.5119 27.324 40.7459C26.7889 40.4783 26.2805 40.184 25.7988 39.8629ZM8.67651 39.8897C8.58554 43.7963 12.8293 45.4018 15.4971 46.2045C17.1828 46.6861 19.0559 47.0072 20.9824 47.141V43.4484C18.6277 43.2879 16.3266 42.8865 14.1592 42.2711C12.0748 41.6557 10.2285 40.8797 8.67651 39.8897ZM72.8926 41.843C72.8391 45.7764 77.0133 47.3551 79.7158 48.1578C84.5055 49.5492 90.7133 49.5492 95.5029 48.1578C98.9012 47.1678 102.299 45.2947 102.326 41.843C100.774 42.833 98.9279 43.609 96.8408 44.2244C91.0344 45.9102 84.1844 45.9102 78.3779 44.2244C76.2908 43.609 74.4445 42.833 72.8926 41.843ZM60.0488 42.9668V46.6326C62.5641 47.141 65.3736 47.3283 68.0762 47.1678V43.4752C65.3736 43.609 62.6443 43.4484 60.0488 42.9668ZM8.67651 48.4522C8.58554 52.3588 12.8293 53.9643 15.4971 54.767C17.1828 55.2486 19.0559 55.5697 20.9824 55.7035V52.0109C18.6277 51.8504 16.3266 51.449 14.1592 50.8336C12.0748 50.2182 10.2285 49.4422 8.67651 48.4522ZM25.7988 48.4522C25.665 50.0576 26.3875 51.342 27.2705 52.118C28.3943 53.0813 30.2139 54.0713 32.6221 54.767C37.4117 56.1317 43.6195 56.1317 48.4092 54.767C50.8174 54.0713 52.6369 53.0813 53.7607 52.118C55.0719 51.0209 55.2324 49.9774 55.2324 48.4522C53.6805 49.4422 51.8342 50.2182 49.7471 50.8336C43.9406 52.4926 37.0906 52.4926 31.2842 50.8336C29.1971 50.2182 27.3508 49.4422 25.7988 48.4522ZM72.8926 50.4055C72.8391 54.3389 77.0133 55.9176 79.7158 56.7203C84.5055 58.1117 90.7133 58.1117 95.5029 56.7203C98.9012 55.7303 102.299 53.8572 102.326 50.4055C100.774 51.3955 98.9279 52.1715 96.8408 52.7869C91.0344 54.4727 84.1844 54.4727 78.3779 52.7869C76.2908 52.1715 74.4445 51.3955 72.8926 50.4055ZM60.0488 51.5293V55.1951C62.5641 55.7035 65.3736 55.8908 68.0762 55.7303V52.0377C65.3736 52.1715 62.6443 52.0109 60.0488 51.5293ZM25.7988 57.0147V57.6301C26.5748 57.8977 27.324 58.2188 28.0197 58.5666C30.4279 59.7707 32.515 61.4565 33.5854 63.5703C38.2145 64.6942 43.9406 64.6139 48.4092 63.3295C50.8174 62.6338 52.6369 61.6438 53.7607 60.6805C55.0719 59.5834 55.2324 58.5399 55.2324 57.0147C53.6805 58.0047 51.8342 58.7807 49.7471 59.3961C43.9406 61.0551 37.0906 61.0551 31.2842 59.3961C29.1971 58.7807 27.3508 58.0047 25.7988 57.0147ZM72.8926 58.968C72.8391 62.9014 77.0133 64.4801 79.7158 65.2828C84.5055 66.6742 90.7133 66.6742 95.5029 65.2828C98.9012 64.2928 102.299 62.4197 102.326 58.968C100.774 59.958 98.9279 60.734 96.8408 61.3494C91.0344 63.0352 84.1844 63.0352 78.3779 61.3494C76.2908 60.734 74.4445 59.958 72.8926 58.968ZM60.0488 60.0918V63.7576C62.5641 64.266 65.3736 64.4533 68.0762 64.2928V60.6002C65.3736 60.734 62.6443 60.5734 60.0488 60.0918ZM14.8281 60.627C10.4158 60.627 6.45561 61.5635 3.77983 62.8746C1.13081 64.2125 0.114012 65.7109 0.114012 66.7813C0.114012 67.8516 1.13081 69.35 3.77983 70.6879C6.45561 72.0258 10.4158 72.9356 14.8281 72.9356C19.2432 72.9356 23.2033 72.0258 25.8524 70.6879C28.5281 69.35 29.5449 67.8516 29.5449 66.7813C29.5449 65.7109 28.5281 64.2125 25.8524 62.8746C23.2033 61.5635 19.2432 60.627 14.8281 60.627ZM55.2324 65.5772C53.6805 66.5672 51.8342 67.3432 49.7471 67.9586C44.9307 69.3232 39.4186 69.5641 34.3613 68.6543V72.3201C38.8566 73.2567 44.1815 73.0961 48.4092 71.892C51.7807 70.902 55.2057 69.0022 55.2324 65.5772ZM72.8926 67.5305C72.8123 71.3301 76.826 72.9623 79.475 73.765C80.9734 72.5609 82.3381 71.6512 83.9436 70.9822C82.017 70.7682 80.144 70.4203 78.3779 69.9119C76.2908 69.2965 74.4445 68.5205 72.8926 67.5305ZM102.326 67.5305C101.577 68.0121 100.747 68.4402 99.8377 68.8416C100.667 68.9219 101.497 69.0289 102.273 69.1627C102.38 68.6275 102.326 68.0924 102.326 67.5305ZM60.0488 68.6543V72.2934C62.9654 72.8553 65.4004 72.9891 68.0762 72.882V69.1627C65.3736 69.2965 62.6443 69.1359 60.0488 68.6543ZM96.1719 73.4707C91.7569 73.4707 87.7967 74.4072 85.1477 75.7184C82.4719 77.0563 81.4551 78.5547 81.4551 79.625C81.4551 80.6953 82.4719 82.1938 85.1477 83.5316C87.7967 84.8695 91.7569 85.7793 96.1719 85.7793C100.587 85.7793 104.547 84.8695 107.196 83.5316C109.872 82.1938 110.889 80.6953 110.889 79.625C110.889 78.5547 109.872 77.0563 107.196 75.7184C104.547 74.4072 100.587 73.4707 96.1719 73.4707ZM0.114012 74.1129C0.036414 78.0731 4.21063 79.6518 6.93725 80.4545C11.7269 81.8192 17.932 81.8192 22.7217 80.4545C26.1199 79.4645 29.5182 77.5647 29.5449 74.1129C29.0633 74.434 28.5549 74.7283 28.0197 74.9959C24.4877 76.7619 19.8854 77.752 14.8281 77.752C9.58093 77.3238 4.15712 76.7887 0.114012 74.1129ZM55.2324 74.1397C53.6805 75.1297 51.8342 75.9057 49.7471 76.5211C44.9307 77.8857 39.4186 78.1266 34.3613 77.2168V80.8826C38.8566 81.8192 44.1815 81.6586 48.4092 80.4545C51.7807 79.4645 55.2057 77.5647 55.2324 74.1397ZM72.8926 76.093C72.7856 78.849 75.0332 80.401 76.5852 81.2037C76.5852 81.2037 76.6119 81.2305 76.6387 81.2305V77.9125C75.2473 77.4041 73.9897 76.7887 72.8926 76.093ZM0.114012 82.7022C0.0230351 86.6088 4.26683 88.2143 6.93725 89.017C11.7269 90.3817 17.932 90.3817 22.7217 89.017C26.0932 88.027 29.5182 86.1272 29.5449 82.7022C27.993 83.6922 26.1467 84.4682 24.0596 85.0836C18.2531 86.7426 11.4058 86.7426 5.59936 85.0836C3.51225 84.4682 1.66596 83.6922 0.114012 82.7022ZM34.3613 85.7793V89.4184C35.6725 89.7127 37.0906 89.9 38.5623 90.007C39.0975 88.5889 40.0607 87.358 41.2916 86.3145C38.9637 86.368 36.609 86.1807 34.3613 85.7793ZM57.6406 86.3145C53.2256 86.3145 49.2654 87.251 46.6164 88.5621C43.9406 89.9 42.9238 91.3984 42.9238 92.4688C42.9238 93.5391 43.9406 95.0375 46.6164 96.3754C49.2654 97.7133 53.2256 98.6231 57.6406 98.6231C62.0557 98.6231 66.0158 97.7133 68.6649 96.3754C71.3406 95.0375 72.3574 93.5391 72.3574 92.4688C72.3574 91.3984 71.3406 89.9 68.6649 88.5621C66.0158 87.251 62.0557 86.3145 57.6406 86.3145ZM81.4551 86.9566C81.4283 90.9168 85.5223 92.4955 88.2783 93.2982C93.068 94.6629 99.2758 94.6629 104.065 93.2982C107.464 92.3082 110.862 90.4084 110.889 86.9566C106.661 89.5254 100.266 90.569 96.1719 90.5957C90.9274 90.1676 85.4955 89.6324 81.4551 86.9566ZM0.114012 91.2647C0.0230351 95.1713 4.26683 96.7768 6.93725 97.5795C11.7269 98.9442 17.932 98.9442 22.7217 97.5795C26.0932 96.5895 29.5182 94.6897 29.5449 91.2647C27.993 92.2547 26.1467 93.0307 24.0596 93.6461C18.2531 95.3051 11.4058 95.3051 5.59936 93.6461C3.51225 93.0307 1.66596 92.2547 0.114012 91.2647ZM81.4551 95.5459C81.4016 99.4793 85.5758 101.058 88.2783 101.861C93.068 103.225 99.2758 103.225 104.065 101.861C107.437 100.871 110.862 98.9709 110.889 95.5459C109.337 96.5359 107.49 97.3119 105.403 97.9274C99.5969 99.5863 92.7469 99.5863 86.9404 97.9274C84.8533 97.3119 83.007 96.5359 81.4551 95.5459ZM42.9238 99.8004C42.79 101.406 43.5125 102.717 44.3955 103.493C45.5193 104.456 47.3389 105.446 49.7471 106.142C54.5367 107.507 60.7445 107.507 65.5342 106.142C67.9424 105.446 69.7619 104.456 70.8858 103.493C72.0096 102.53 72.3574 101.7 72.3574 101.031V99.8004C71.8758 100.121 71.3674 100.416 70.8322 100.683C67.3002 102.449 62.6979 103.439 57.6406 103.439C52.5834 103.439 47.9811 102.449 44.449 100.683C43.9139 100.416 43.4055 100.121 42.9238 99.8004ZM0.114012 99.8272C0.0230351 103.734 4.26683 105.339 6.93725 106.142C11.7269 107.507 17.932 107.507 22.7217 106.142C26.0932 105.152 29.5182 103.252 29.5449 99.8272C27.993 100.817 26.1467 101.593 24.0596 102.209C18.2531 103.868 11.4058 103.868 5.59936 102.209C3.51225 101.593 1.66596 100.817 0.114012 99.8272ZM81.4551 104.108C81.4016 108.042 85.5758 109.621 88.2783 110.423C93.068 111.788 99.2758 111.788 104.065 110.423C107.437 109.433 110.862 107.533 110.889 104.108C109.337 105.098 107.49 105.874 105.403 106.49C99.5969 108.149 92.7469 108.149 86.9404 106.49C84.8533 105.874 83.007 105.098 81.4551 104.108ZM0.114012 108.39C0.0230351 112.296 4.26683 113.902 6.93725 114.704C11.7269 116.069 17.932 116.069 22.7217 114.704C26.0932 113.714 29.5182 111.815 29.5449 108.39C27.993 109.38 26.1467 110.156 24.0596 110.771C18.2531 112.43 11.4058 112.43 5.59936 110.771C3.51225 110.156 1.66596 109.38 0.114012 108.39ZM42.9238 108.39C42.8168 111.146 45.0645 112.698 46.6164 113.5C49.2654 114.838 53.2256 115.748 57.6406 115.748C62.0557 115.748 66.0158 114.838 68.6649 113.5C71.3139 111.841 72.3574 111.199 72.3574 108.39C70.8055 109.38 68.9592 110.156 66.8721 110.771C61.0656 112.43 54.2156 112.43 48.4092 110.771C46.3221 110.156 44.4758 109.38 42.9238 108.39ZM81.4551 112.671C81.3481 115.427 83.5957 116.979 85.1477 117.782C87.7967 119.12 91.7569 120.029 96.1719 120.029C100.587 120.029 104.547 119.12 107.196 117.782C109.845 116.123 110.889 115.48 110.889 112.671C109.337 113.661 107.49 114.437 105.403 115.052C99.5969 116.711 92.7469 116.711 86.9404 115.052C84.8533 114.437 83.007 113.661 81.4551 112.671ZM0.114012 116.952C-0.00372267 119.681 2.22253 121.26 3.77983 122.063C6.45561 123.401 10.4158 124.311 14.8281 124.311C19.2432 124.311 23.2033 123.401 25.8524 122.063C28.5014 120.404 29.5449 119.762 29.5449 116.952C27.993 117.942 26.1467 118.718 24.0596 119.334C18.2531 120.993 11.4058 120.993 5.59936 119.334C3.51225 118.718 1.66596 117.942 0.114012 116.952Z" fill="white"/>
</svg>
