<svg width="137" height="137" viewBox="0 0 137 137" fill="none" xmlns="http://www.w3.org/2000/svg">
<g clip-path="url(#clip0_171_1941)">
<path d="M68.5 45.6667L51.375 55.6562V75.6354L68.5 85.625L85.625 75.6354V55.6562L68.5 45.6667ZM77.1595 57.3117L68.4258 62.4035L59.7663 57.3516L68.5 52.2598L77.1595 57.3117ZM57.0262 62.3464L65.4974 67.2898V77.2794L57.0262 72.3417V62.3464ZM71.1487 77.4906V67.404L79.9738 62.2551V72.3417L71.1487 77.4906ZM17.125 0L0 9.98958V29.9688L17.125 39.9583L34.25 29.9688V9.98958L17.125 0ZM25.7845 11.645L17.0508 16.7368L8.39125 11.685L17.125 6.59312L25.7845 11.645ZM5.65125 16.674L14.1224 21.6175V31.607L5.65125 26.6807V16.674ZM19.7737 31.8183V21.7373L28.5988 16.5884V26.675L19.7737 31.8183ZM17.125 97.0417L0 107.031V127.01L17.125 137L34.25 127.01V107.031L17.125 97.0417ZM25.7845 108.687L17.0508 113.778L8.39125 108.727L17.125 103.635L25.7845 108.687ZM5.65125 113.721L14.1224 118.665V128.654L5.65125 123.722V113.721ZM19.7737 128.866V118.779L28.5988 113.63V123.717L19.7737 128.866ZM119.875 0L102.75 9.98958V29.9688L119.875 39.9583L137 29.9688V9.98958L119.875 0ZM128.535 11.645L119.801 16.7368L111.141 11.685L119.875 6.59312L128.535 11.645ZM108.401 16.6798L116.872 21.6232V31.6128L108.401 26.675V16.6798ZM122.524 31.824V21.7373L131.349 16.5884V26.675L122.524 31.824ZM119.875 97.0417L102.75 107.031V127.01L119.875 137L137 127.01V107.031L119.875 97.0417ZM128.535 108.687L119.801 113.778L111.141 108.727L119.875 103.635L128.535 108.687ZM108.401 113.721L116.872 118.665V128.654L108.401 123.717V113.721ZM122.524 128.866V118.779L131.349 113.63V123.717L122.524 128.866ZM51.375 17.125H85.625V22.8333H51.375V17.125ZM51.375 114.167H85.625V119.875H51.375V114.167ZM19.9792 51.375V85.625H14.2708V51.375H19.9792ZM41.6309 50.3932L29.5235 38.2858L33.5593 34.25L45.6667 46.3517L41.6309 50.3932ZM91.3333 47.3392L103.441 35.2318L107.477 39.2676L95.3691 51.375L91.3333 47.3392ZM46.3973 84.9343L34.29 97.0417L30.2542 93.0059L42.3615 80.8985L46.3973 84.9343ZM96.351 80.653L108.458 92.7604L104.423 96.7962L92.3152 84.6888L96.351 80.653ZM122.729 51.375V85.625H117.021V51.375H122.729Z" fill="white"/>
</g>
<defs>
<clipPath id="clip0_171_1941">
<rect width="137" height="137" fill="white"/>
</clipPath>
</defs>
</svg>
