<svg width="137" height="137" viewBox="0 0 137 137" fill="none" xmlns="http://www.w3.org/2000/svg">
<mask id="mask0_723_7746" style="mask-type:luminance" maskUnits="userSpaceOnUse" x="5" y="17" width="127" height="106">
<path d="M71.353 114.167H19.978C17.7071 114.167 15.5292 113.265 13.9234 111.659C12.3176 110.053 11.4155 107.875 11.4155 105.604V31.3959C11.4155 29.125 12.3176 26.9471 13.9234 25.3413C15.5292 23.7355 17.7071 22.8334 19.978 22.8334H117.02C119.291 22.8334 121.469 23.7355 123.074 25.3413C124.68 26.9471 125.582 29.125 125.582 31.3959V71.1858" stroke="white" stroke-width="11.4167" stroke-linecap="round" stroke-linejoin="round"/>
<path d="M11.4155 31.3959C11.4155 29.125 12.3176 26.9471 13.9234 25.3413C15.5292 23.7355 17.7071 22.8334 19.978 22.8334H117.02C119.291 22.8334 121.469 23.7355 123.074 25.3413C124.68 26.9471 125.582 29.125 125.582 31.3959V57.0834H11.4155V31.3959Z" fill="white" stroke="white" stroke-width="11.4167"/>
<path d="M91.332 99.8959H125.582M108.457 82.7709V117.021" stroke="white" stroke-width="11.4167" stroke-linecap="round" stroke-linejoin="round"/>
<path d="M22.8324 39.9584C22.8324 36.8058 25.3881 34.2501 28.5407 34.2501C31.6933 34.2501 34.249 36.8058 34.249 39.9584C34.249 43.111 31.6933 45.6667 28.5407 45.6667C25.3881 45.6667 22.8324 43.111 22.8324 39.9584Z" fill="black"/>
<path d="M39.9574 39.9584C39.9574 36.8058 42.5131 34.2501 45.6657 34.2501C48.8183 34.2501 51.374 36.8058 51.374 39.9584C51.374 43.111 48.8183 45.6667 45.6657 45.6667C42.5131 45.6667 39.9574 43.111 39.9574 39.9584Z" fill="black"/>
</mask>
<g mask="url(#mask0_723_7746)">
<path d="M-0.000488281 0H137V137H-0.000488281V0Z" fill="white"/>
</g>
</svg>
