<svg width="112" height="137" viewBox="0 0 112 137" fill="none" xmlns="http://www.w3.org/2000/svg">
<path d="M34.25 85.625H77.0625C91.2763 85.625 102.75 97.0988 102.75 111.312V128.438H8.5625V111.312C8.5625 97.0988 20.0363 85.625 34.25 85.625ZM34.25 34.25H77.0625V55.6562C77.0625 61.3335 74.8072 66.7783 70.7928 70.7928C66.7783 74.8072 61.3335 77.0625 55.6562 77.0625C49.979 77.0625 44.5342 74.8072 40.5197 70.7928C36.5053 66.7783 34.25 61.3335 34.25 55.6562V34.25ZM77.0625 34.25C81.7719 34.25 85.625 38.1031 85.625 42.8125C85.625 47.5219 81.7719 51.375 77.0625 51.375V34.25ZM34.25 51.375C29.5406 51.375 25.6875 47.5219 25.6875 42.8125C25.6875 38.1031 29.5406 34.25 34.25 34.25V51.375Z" fill="white"/>
<path d="M35.2775 35.2776H30.9962C24.5743 29.9688 25.6875 21.8344 25.6875 14.9844C25.6875 8.13443 29.9687 12.7582 34.25 12.7582C38.5312 12.7582 42.8125 17.0394 42.8125 17.0394C35.2775 17.0394 34.25 8.47693 34.25 8.47693H59.9375C69.3562 8.47693 77.0625 16.1832 77.0625 25.6019H81.3437C81.3437 25.6019 83.4844 32.0238 80.3162 36.3051L35.3631 35.2776H35.2775Z" fill="white"/>
</svg>
