<svg width="109" height="109" viewBox="0 0 109 109" fill="none" xmlns="http://www.w3.org/2000/svg">
<path d="M108.729 37.375C108.73 44.7018 106.562 51.8651 102.499 57.962C98.4357 64.059 92.6587 68.8169 85.896 71.6364V71.625C85.896 58.7564 80.784 46.415 71.6846 37.3155C62.5852 28.2161 50.2437 23.1041 37.3752 23.1041H37.3637C40.6678 15.1909 46.61 8.66583 54.1805 4.63799C61.7511 0.610152 70.4827 -0.671968 78.8916 1.00953C87.3005 2.69104 94.8676 7.23241 100.307 13.8618C105.746 20.4912 108.722 28.7996 108.729 37.375ZM25.9585 3.12495C19.9027 3.12495 14.095 5.5306 9.81289 9.81268C5.53081 14.0948 3.12516 19.9025 3.12516 25.9583V34.5208H14.5418V25.9583C14.5418 22.9304 15.7447 20.0265 17.8857 17.8855C20.0267 15.7444 22.9306 14.5416 25.9585 14.5416H34.521V3.12495H25.9585ZM94.4585 74.4791V83.0416C94.4585 86.0695 93.2557 88.9734 91.1146 91.1144C88.9736 93.2555 86.0697 94.4583 83.0418 94.4583H74.4793V105.875H83.0418C89.0976 105.875 94.9053 103.469 99.1874 99.1872C103.47 94.9051 105.875 89.0974 105.875 83.0416V74.4791H94.4585ZM37.3752 108.729C47.2158 108.729 56.6534 104.82 63.6118 97.8616C70.5702 90.9032 74.4793 81.4656 74.4793 71.625C74.4793 61.7843 70.5702 52.3467 63.6118 45.3883C56.6534 38.43 47.2158 34.5208 37.3752 34.5208C27.5345 34.5208 18.0969 38.43 11.1386 45.3883C4.18017 52.3467 0.270996 61.7843 0.270996 71.625C0.270996 81.4656 4.18017 90.9032 11.1386 97.8616C18.0969 104.82 27.5345 108.729 37.3752 108.729ZM37.3752 57.3541L51.646 71.625L37.3752 85.8958L23.1043 71.625L37.3752 57.3541Z" fill="white"/>
</svg>
