<svg width="137" height="137" viewBox="0 0 137 137" fill="none" xmlns="http://www.w3.org/2000/svg">
<path d="M11.4167 51.5C11.4167 35.5167 20.55 21.8167 34.25 15.5375V2.97917C14.2708 10.4 0 29.2375 0 51.5C0 73.7625 14.2708 92.6 34.25 100.021V87.4625C20.55 81.1833 11.4167 67.4833 11.4167 51.5ZM85.625 0.125C57.0833 0.125 34.25 22.9583 34.25 51.5C34.25 80.0417 57.0833 102.875 85.625 102.875C114.167 102.875 137 80.0417 137 51.5C137 22.9583 114.167 0.125 85.625 0.125ZM114.167 57.2083H91.3333V80.0417H79.9167V57.2083H57.0833V45.7917H79.9167V22.9583H91.3333V45.7917H114.167V57.2083Z" fill="white"/>
</svg>
