<svg width="116" height="116" viewBox="0 0 116 116" fill="none" xmlns="http://www.w3.org/2000/svg">
<path d="M64.9479 115.668L55.6433 93.8048C64.6054 90.494 72.9967 86.0415 80.76 80.8469L64.9479 115.668ZM22.1925 60.354L0.32959 51.0494L35.1504 35.2373C29.9558 43.0006 25.5033 51.3919 22.1925 60.354ZM113.355 2.6427C113.355 2.6427 85.0983 -9.46467 52.7892 22.8502C40.2879 35.3515 32.81 49.1085 27.9579 61.1531C26.3596 65.4344 27.4442 70.1152 30.5838 73.3119L42.7425 85.4135C45.8821 88.6102 50.5629 89.6377 54.8442 88.0394C69.2209 82.5577 82.2746 74.0952 93.1471 63.2081C125.456 30.899 113.355 2.6427 113.355 2.6427ZM72.9967 43.0006C68.5442 38.5481 68.5442 31.2985 72.9967 26.846C77.4492 22.3935 84.6988 22.3935 89.1513 26.846C93.5467 31.2985 93.6038 38.5481 89.1513 43.0006C84.6988 47.4531 77.4492 47.4531 72.9967 43.0006ZM25.6175 114.583L46.3958 93.8048C44.455 93.291 42.5713 92.4348 40.8588 91.236L17.5688 114.583H25.6175ZM1.41417 114.583H9.46292L36.6917 87.4115L28.5858 79.3627L1.41417 106.534V114.583ZM1.41417 98.4285L24.7613 75.1385C23.5625 73.426 22.7063 71.5994 22.1925 69.6014L1.41417 90.3798V98.4285Z" fill="white"/>
</svg>
