<svg width="20" height="20" viewBox="0 0 20 20" fill="none" xmlns="http://www.w3.org/2000/svg">
<path d="M13.0799 0.751999H6.91991C6.40189 0.726852 5.89485 0.906997 5.50881 1.25334C5.12278 1.59969 4.88889 2.08429 4.85791 2.602V8.679C4.87756 9.67849 5.16955 10.6537 5.70242 11.4995C6.23529 12.3453 6.98885 13.0298 7.88191 13.479C8.53435 13.8248 9.26151 14.0055 9.99991 14.0055C10.7383 14.0055 11.4655 13.8248 12.1179 13.479C13.011 13.0298 13.7645 12.3453 14.2974 11.4995C14.8303 10.6537 15.1223 9.67849 15.1419 8.679V2.602C15.1109 2.08429 14.877 1.59969 14.491 1.25334C14.105 0.906997 13.5979 0.726852 13.0799 0.751999Z" stroke="#9F9F9F" stroke-width="1.5" stroke-linecap="round"/>
<path d="M15.142 2.602H17.196C17.7125 2.57929 18.2172 2.76053 18.6013 3.10663C18.9854 3.45272 19.218 3.93593 19.249 4.452C19.2458 5.61177 18.9463 6.75149 18.379 7.763C17.7849 8.80878 16.9553 9.70173 15.956 10.371L15.142 10.926L14.347 11.407M4.85798 2.602H2.80398C2.28747 2.57929 1.78274 2.76053 1.39867 3.10663C1.0146 3.45272 0.78197 3.93593 0.750977 4.452C0.753977 5.612 1.05298 6.752 1.62098 7.763C2.21504 8.80878 3.04465 9.70173 4.04398 10.371L4.85798 10.926L5.65298 11.407M7.94698 16.475V13.506M12.053 16.475V13.506M6.80998 16.475H13.19C13.4463 16.475 13.7001 16.5255 13.937 16.6236C14.1738 16.7217 14.389 16.8655 14.5702 17.0467C14.7515 17.228 14.8953 17.4432 14.9934 17.68C15.0915 17.9168 15.142 18.1707 15.142 18.427V18.76C15.142 18.89 15.0904 19.0146 14.9985 19.1065C14.9066 19.1984 14.7819 19.25 14.652 19.25H5.34798C5.21802 19.25 5.09339 19.1984 5.00149 19.1065C4.9096 19.0146 4.85798 18.89 4.85798 18.76V18.427C4.85798 17.9095 5.0635 17.4131 5.42935 17.0471C5.79521 16.681 6.29145 16.4753 6.80898 16.475H6.80998Z" stroke="#9F9F9F" stroke-width="1.5" stroke-linecap="round"/>
<path d="M10.143 8.308L11.323 8.928C11.3729 8.95395 11.429 8.96545 11.4851 8.96121C11.5412 8.95697 11.595 8.93715 11.6404 8.904C11.6858 8.87084 11.7211 8.82565 11.7422 8.77353C11.7633 8.72141 11.7695 8.66443 11.76 8.609L11.534 7.296C11.5256 7.24762 11.5292 7.19793 11.5443 7.15123C11.5595 7.10453 11.5858 7.06223 11.621 7.028L12.576 6.098C12.617 6.05908 12.6463 6.00935 12.6603 5.95454C12.6743 5.89973 12.6725 5.84208 12.6551 5.78823C12.6378 5.73439 12.6056 5.68655 12.5622 5.65024C12.5188 5.61392 12.466 5.59062 12.41 5.583L11.091 5.393C11.0429 5.38578 10.9973 5.36699 10.9581 5.33825C10.9189 5.30951 10.8873 5.27167 10.866 5.228L10.263 4.023C10.2381 3.97237 10.1995 3.92973 10.1516 3.89991C10.1037 3.87008 10.0484 3.85428 9.99199 3.85428C9.93556 3.85428 9.88027 3.87008 9.83237 3.89991C9.78447 3.92973 9.74589 3.97237 9.72099 4.023L9.11899 5.228C9.09749 5.27175 9.06569 5.30962 9.02633 5.33836C8.98696 5.3671 8.9412 5.38585 8.89299 5.393L7.59299 5.583C7.53682 5.59035 7.48386 5.61341 7.44021 5.64951C7.39656 5.68562 7.36398 5.73331 7.34622 5.7871C7.32847 5.8409 7.32625 5.89861 7.33983 5.95361C7.35341 6.0086 7.38223 6.05865 7.42299 6.098L8.37799 7.028C8.41343 7.06209 8.43998 7.10433 8.45533 7.15105C8.47067 7.19777 8.47433 7.24754 8.46599 7.296L8.23999 8.609C8.22957 8.66455 8.23507 8.72192 8.25583 8.77448C8.27659 8.82705 8.31178 8.87268 8.35735 8.90612C8.40291 8.93957 8.457 8.95946 8.51337 8.9635C8.56974 8.96755 8.62611 8.95559 8.67599 8.929L9.85599 8.309C9.90002 8.28502 9.94935 8.27245 9.99949 8.27245C10.0496 8.27245 10.099 8.28502 10.143 8.309" stroke="#9F9F9F" stroke-width="1.5" stroke-linecap="round" stroke-linejoin="round"/>
</svg>
