<svg width="36" height="36" viewBox="0 0 36 36" fill="none" xmlns="http://www.w3.org/2000/svg">
<path d="M5.14286 0.321442C2.30625 0.321442 0 2.62769 0 5.4643V31.1786C0 34.0152 2.30625 36.3214 5.14286 36.3214H30.8571C33.6937 36.3214 36 34.0152 36 31.1786V5.4643C36 2.62769 33.6937 0.321442 30.8571 0.321442H5.14286ZM29.017 7.07144L20.6759 16.6018L30.4875 29.5714H22.8054L16.7946 21.7045L9.90804 29.5714H6.09107L15.0107 19.3741L5.60089 7.07144H13.4759L18.9161 14.2634L25.2 7.07144H29.017ZM25.9795 27.2893L12.3268 9.23305H10.0527L23.858 27.2893H25.9714H25.9795Z" fill="black"/>
</svg>
