<svg width="56" height="56" viewBox="0 0 56 56" fill="none" xmlns="http://www.w3.org/2000/svg">
<path d="M24.6984 3.53456C24.2658 3.53303 23.8319 3.53346 23.3969 3.53532C21.3027 3.54506 19.175 3.60007 17.0292 3.6797L17.65 6.40237C19.8846 6.14971 22.3345 5.96159 24.7842 5.86753C26.1113 5.81656 27.4304 5.78965 28.7099 5.79643C32.5484 5.81645 36.0311 6.13878 38.3097 7.02165L39.284 7.39943L38.849 8.34936C35.6705 15.293 34.9354 21.9919 35.4335 28.5647C35.6793 20.7643 38.9218 13.8264 43.1783 4.93226C37.3862 3.96976 31.1871 3.55611 24.6984 3.53445V3.53456ZM27.7646 7.77722C26.8087 7.77798 25.8342 7.79734 24.8597 7.83475C20.3019 8.00975 15.7599 8.54459 12.7996 9.15775C16.1064 15.2914 18.7813 21.4391 20.5087 27.4323C20.7236 27.4252 20.9386 27.4268 21.1534 27.4373C21.5928 27.4588 22.0275 27.5184 22.4522 27.6112C20.694 21.9896 18.6913 16.8049 16.2018 11.6281L15.6393 10.4584L16.9175 10.2322C20.1283 9.66371 23.4424 9.44365 26.5965 9.44267C26.8067 9.44267 27.0165 9.44343 27.2252 9.44529C29.2294 9.46279 31.1609 9.56648 32.9505 9.72256L34.1596 9.82811L33.8069 10.9893C31.7616 17.7228 31.361 24.9541 32.5174 31.8342C32.5367 31.8521 32.5561 31.8698 32.5749 31.8878C32.992 31.7417 33.3821 31.5927 33.7458 31.4335C32.843 24.0623 33.243 16.4575 36.6146 8.55214C34.7331 8.07275 31.865 7.82217 28.7135 7.78279C28.3972 7.77888 28.0809 7.77695 27.7646 7.77722ZM43.618 8.58495C40.2322 15.7551 37.8274 21.501 37.4332 27.704C39.6248 20.3976 43.861 13.8479 48.6883 9.63987C47.0127 9.22191 45.3213 8.87 43.618 8.58495ZM11.3566 10.6116C9.30476 11.0346 7.30035 11.5717 5.36157 12.3137C6.30504 13.1318 8.01064 14.6537 10.08 16.6765C11.0324 15.6962 12.0038 14.7277 13.0169 13.847C12.4803 12.76 11.9268 11.6813 11.3566 10.6116ZM26.8904 11.4299C25.4007 11.4227 23.8758 11.4653 22.3454 11.5713C22.1849 13.0678 21.2998 14.4678 20.2427 15.8446C21.9305 19.8334 23.3881 23.9037 24.7004 28.2252C26.7101 28.818 28.6985 29.5188 30.3091 30.3584C29.7109 25.7146 29.7927 20.9562 30.5694 16.3029C29.1602 14.8471 28.426 13.2305 28.3672 11.4532C27.875 11.4401 27.3827 11.4323 26.8904 11.4299ZM46.7986 14.3814C44.0938 17.5861 41.7104 21.5998 40.0863 25.9655C43.0683 21.7237 46.7352 18.4151 50.6385 16.078C49.3668 15.4939 48.0867 14.9283 46.7986 14.3814ZM13.9052 15.6894C12.309 17.1318 10.7318 18.8631 9.08929 20.5125C12.6209 22.6115 15.6289 25.0973 18.0828 27.9128C18.2351 27.8553 18.389 27.8036 18.5438 27.7564C17.3956 23.8084 15.822 19.7684 13.9052 15.6894ZM39.4319 29.3342C37.6385 31.4985 35.95 32.6411 33.6252 33.5527C33.8867 34.5612 33.4983 35.7189 32.6043 36.6044C32.0784 37.1252 31.4175 37.7187 30.4513 38.1045C30.5907 38.187 30.733 38.2646 30.8779 38.3371C32.2302 39.012 34.6193 38.7943 36.8388 37.7849C39.0515 36.7787 41.0281 35.0405 41.7607 33.2796C42.1279 32.2898 41.8657 31.7735 41.2229 31.0165C40.7653 30.4778 40.0969 29.9347 39.4319 29.3343V29.3342ZM20.8295 29.3982C19.6575 29.3875 18.4673 29.7257 17.4837 30.4657C16.0848 31.5183 15.0064 33.3952 14.9967 36.5835V36.6054L14.9956 36.6273C14.6763 43.3408 15.1707 46.4382 16.1501 48.1188C17.0146 49.6021 18.4524 50.3122 20.5557 51.6181C20.6559 51.3549 20.7603 51.0313 20.8582 50.623C21.1072 49.5841 21.3133 48.1572 21.4439 46.5789C21.7052 43.4225 21.667 39.6325 21.23 36.9052L20.9991 35.4625L22.4228 35.7901C25.8806 36.5856 27.8587 36.6796 29.0071 36.477C30.1558 36.2742 30.5451 35.8729 31.2188 35.2056C31.8521 34.5787 31.8403 34.353 31.7062 34.0002C31.572 33.6472 31.0336 33.0656 30.1202 32.5091C28.2934 31.3961 25.1891 30.3641 22.2875 29.5946C21.8116 29.4686 21.3218 29.4027 20.8295 29.3982ZM41.5123 36.9906C40.4171 38.0575 39.0694 38.9332 37.6539 39.577C35.3589 40.6207 32.8345 41.0981 30.7402 40.4031C30.0008 40.6783 29.5713 40.9945 29.3546 41.2562C29.0573 41.6154 29.0387 41.8797 29.1395 42.2581C29.2401 42.6366 29.5403 43.0859 29.9116 43.4092C30.2827 43.7325 30.7238 43.9005 30.8914 43.9084C36.0095 44.1514 38.2246 42.6826 40.9842 40.979C41.789 40.4822 42.097 39.4758 42.0199 38.4709C41.9813 37.9684 41.8351 37.4963 41.6663 37.1989C41.6244 37.123 41.5726 37.053 41.5123 36.9906ZM23.3356 37.9855C23.6339 40.7273 23.6388 43.9261 23.4058 46.7413C23.2694 48.3898 23.0586 49.889 22.7726 51.0818C22.6483 51.6009 22.5115 52.0612 22.3461 52.4664L38.3911 51.7593C38.2099 51.0868 38.0253 50.4114 37.8408 49.7357C37.2244 49.9408 36.5943 50.1025 35.9552 50.2195L35.96 50.2994L35.0504 50.356C34.4903 50.4232 33.9072 50.4603 33.3023 50.4645L24.1301 51.0344L24.4028 49.7649C25.272 45.7173 25.3521 42.1536 24.816 38.2549C24.3208 38.1747 23.8272 38.0849 23.3355 37.9855H23.3356ZM26.8325 38.4978C27.2644 41.9905 27.2124 45.3239 26.5694 48.9103L28.6764 48.7795C28.346 48.2919 28.1189 47.7418 28.0092 47.1632C27.8674 46.4107 27.9463 45.5731 28.4386 44.8805C28.4604 44.8498 28.4839 44.8203 28.5072 44.7907C27.9334 44.2608 27.4541 43.5808 27.2369 42.7646C27.0057 41.8958 27.1501 40.832 27.8381 40.0007C28.0655 39.7262 28.3404 39.4784 28.6631 39.2552C28.3777 39.0277 28.1274 38.7866 27.9113 38.5353C27.5762 38.5376 27.2173 38.5252 26.8325 38.4978ZM41.3429 43.068C38.7774 44.627 35.8949 46.117 30.798 45.875C30.6317 45.8669 30.4664 45.8444 30.3039 45.8078C30.169 45.8683 30.0971 45.9451 30.0434 46.0207C29.938 46.1689 29.8758 46.4364 29.9439 46.7987C30.0804 47.5235 30.767 48.3178 31.4063 48.3922C35.9328 48.9186 39.0602 47.4378 40.9592 45.715C41.8342 44.9212 41.8416 44.4135 41.7128 43.861C41.6483 43.5851 41.5061 43.3175 41.3429 43.068ZM40.6119 48.4342C40.3081 48.6247 39.9962 48.802 39.6771 48.9658C39.8576 49.6276 40.0385 50.2894 40.2171 50.9514L42.3958 50.5607C41.8336 50.0808 41.3937 49.5813 41.0407 49.0845C40.883 48.8626 40.7439 48.6469 40.6119 48.4342Z" fill="white"/>
</svg>
