<svg width="56" height="56" viewBox="0 0 56 56" fill="none" xmlns="http://www.w3.org/2000/svg">
<path d="M28.0001 49.987L8.16675 38.9947V17.0053L28.0001 6.013L47.8334 17.0053V38.9947L28.0001 49.987ZM21.4574 23.0183C22.2616 22.0259 23.2323 21.2466 24.3694 20.6803C25.5065 20.1157 26.7167 19.8333 28.0001 19.8333C29.2834 19.8333 30.4936 20.1157 31.6307 20.6803C32.7663 21.2466 33.737 22.0259 34.5427 23.0183L44.1444 17.675L28.0001 8.687L11.8534 17.675L21.4574 23.0183ZM26.8334 46.6573V36.1433C24.8236 35.7793 23.1545 34.8359 21.8261 33.313C20.4976 31.7901 19.8334 30.0191 19.8334 28C19.8334 27.482 19.8754 26.9936 19.9594 26.5347C20.0434 26.0758 20.1733 25.6068 20.3491 25.1277L10.5001 19.6093V37.5993L26.8334 46.6573ZM28.0001 33.8333C29.6427 33.8333 31.0256 33.2718 32.1488 32.1487C33.2719 31.0256 33.8334 29.6427 33.8334 28C33.8334 26.3573 33.2719 24.9744 32.1488 23.8513C31.0256 22.7282 29.6427 22.1667 28.0001 22.1667C26.3574 22.1667 24.9745 22.7282 23.8514 23.8513C22.7283 24.9744 22.1667 26.3573 22.1667 28C22.1667 29.6427 22.7283 31.0256 23.8514 32.1487C24.9745 33.2718 26.3574 33.8333 28.0001 33.8333ZM29.1667 46.6573L45.5001 37.597V19.607L35.6511 25.1277C35.8269 25.6068 35.9568 26.0758 36.0408 26.5347C36.1248 26.9936 36.1667 27.482 36.1667 28C36.1667 30.0191 35.5025 31.7901 34.1741 33.313C32.8456 34.8359 31.1765 35.7793 29.1667 36.1433V46.6573Z" fill="white"/>
</svg>
