<svg version="1.2" xmlns="http://www.w3.org/2000/svg" viewBox="0 0 976 127" width="976" height="127"><defs><linearGradient id="P" gradientUnits="userSpaceOnUse"/><linearGradient id="g1" x2="1" href="#P" gradientTransform="matrix(177.909,207.018,-204.339,175.607,-59.932,-11.827)"><stop offset=".01" stop-color="#02db5b"/><stop offset="1" stop-color="#4977c1"/></linearGradient><linearGradient id="g2" x2="1" href="#P" gradientTransform="matrix(-102.936,-252.809,240.255,-97.824,229.904,168.401)"><stop offset=".01" stop-color="#02db5b"/><stop offset="1" stop-color="#4977c1"/></linearGradient><linearGradient id="g3" x2="1" href="#P" gradientTransform="matrix(42.384,368.152,-1625.433,187.129,-19.382,-65.546)"><stop offset=".01" stop-color="#02db5b"/><stop offset="1" stop-color="#4977c1"/></linearGradient><linearGradient id="g4" x2="1" href="#P" gradientTransform="matrix(8.455,121.981,-901.279,62.471,271.105,77.335)"><stop offset=".01" stop-color="#02db5b"/><stop offset="1" stop-color="#4977c1"/></linearGradient><linearGradient id="g5" x2="1" href="#P" gradientTransform="matrix(-401.78,0,0,0,401.78,0)"><stop offset=".01" stop-color="#02db5b"/><stop offset="1" stop-color="#4977c1"/></linearGradient><linearGradient id="g6" x2="1" href="#P" gradientTransform="matrix(-1517.78,0,0,0,1517.78,0)"><stop offset=".01" stop-color="#02db5b"/><stop offset="1" stop-color="#4977c1"/></linearGradient></defs><style>.a{fill:url(#g1)}.b{fill:#247f80}.c{fill:url(#g2)}.d{fill:url(#g3)}.e{fill:url(#g4)}.f{fill:none;stroke:url(#g5);stroke-width:3}.g{fill:none;stroke:url(#g6);stroke-width:3}</style><path fill-rule="evenodd" class="a" d="m70.3 119.5c32.4-5.7 54.1-36.6 48.4-69q-1.1-5.6-3-10.8 0.4 1.5 0.7 3.2c4.1 23.5-11.6 45.9-35.1 50-23.5 4.2-45.9-11.5-50.1-35-4.1-23.5 11.6-46 35.1-50.1 10.4-1.8 20.5 0.2 29 5.1-12.7-9.3-29-13.6-45.6-10.7-32.4 5.7-54.1 36.6-48.4 69 5.7 32.4 36.6 54 69 48.3z"/><path fill-rule="evenodd" class="b" d="m93.9 11.6c-6.2-2.7-13.2-4.1-20.5-3.5-22.9 1.8-40.1 21.7-38.4 44.4 1.8 22.8 21.8 39.8 44.8 38.1 15.2-1.2 27.8-10.3 34.1-22.8-6.2 14.4-19.9 25-36.7 26.3-24 1.8-44.9-16.2-46.8-40.2-1.9-24.1 16.1-45.1 40.1-47 8.4-0.6 16.4 1.1 23.4 4.7z"/><path fill-rule="evenodd" class="c" d="m148.1 2.5c-32.5-4.9-62.8 17.5-67.7 50q-0.4 2.6-0.6 5.2c5.8-20.8 26.3-34.4 48.1-31.2 23.6 3.6 39.8 25.6 36.3 49.2-3.6 23.6-25.6 39.9-49.2 36.3-4.6-0.7-8.9-2.1-12.9-4.1 7.9 6.4 17.6 10.8 28.3 12.4 32.6 4.9 62.9-17.5 67.8-50.1 4.9-32.5-17.5-62.8-50.1-67.7z"/><path fill-rule="evenodd" class="b" d="m104 109.3c6.4 2.4 13.5 3.2 20.7 2.2 22.8-3.3 38.7-24.2 35.4-46.8-3.2-22.5-24.3-38.1-47.1-34.8-15.1 2.1-27.1 12-32.6 24.9 5.2-14.8 18.3-26.2 34.9-28.6 23.8-3.4 45.9 13.1 49.4 36.9 3.4 23.9-13.2 46-37 49.4-8.3 1.2-16.5-0.1-23.6-3.2z"/><path fill-rule="evenodd" class="d" d="m295.5 86v-68.5h-34.2v-12.1h80.6v12.1h-34.3v68.5zm84.9 0v-68.5h-34.2v-12.1h80.6v12.1h-34.3v68.5zm87.4 0v-66q0-4.1 1.9-7.3 2-3.4 5.3-5.3 3.3-2 7.4-2h51.4q4 0 7.3 2 3.4 1.9 5.3 5.3 2 3.2 2 7.3v66h-12.2v-28.2h-56.3v28.2zm12.1-40.3h56.3v-25.4q0-1.1-0.8-1.9-0.8-0.9-1.9-0.9h-50.8q-1.1 0-2 0.9-0.8 0.8-0.8 1.9zm113.2 40.3l-35.9-64.9h14l27.9 51.2 27.9-51.2h14l-35.9 64.9zm69.4 0q-4.1 0-7.4-2-3.3-2-5.3-5.3-1.9-3.2-1.9-7.3v-23.9h53.8v-11.5q0-1.2-0.7-1.9-0.8-0.9-1.9-0.9h-51.2v-12.1h51.5q4 0 7.3 2 3.3 1.9 5.2 5.3 2 3.3 2 7.2v50.4zm0.4-12.1h38.9v-15.1h-41.7v12.3q0 1.1 0.8 2 0.9 0.8 2 0.8zm77.5 12.1q-4.1 0-7.4-2-3.3-2-5.3-5.3-1.9-3.2-1.9-7.3v-70.8h12.1v20.5h26.6v12.1h-26.6v37.9q0 1.1 0.8 2 0.9 0.8 2 0.8h23.8v12.1zm48.7 0q-4 0-7.4-2-3.3-2-5.3-5.3-1.9-3.2-1.9-7.3v-23.9h53.9v-11.5q0-1.2-0.8-1.9-0.8-0.9-1.9-0.9h-51.2v-12.1h51.5q4 0 7.3 2 3.3 1.9 5.3 5.3 2 3.3 2 7.2v50.4zm0.3-12.1h39v-15.1h-41.8v12.3q0 1.1 0.8 2 0.9 0.8 2 0.8zm61.4 12.1v-50.4q0-4 2-7.2 2-3.3 5.3-5.3 3.3-2 7.3-2h36.2v12.1h-35.9q-1.1 0-2 0.9-0.8 0.7-0.8 1.9v50zm72.7 0q-4 0-7.3-2-3.2-2-5.2-5.3-2.1-3.2-2.1-7.3v-1.6h12.1v1.3q0 1.1 0.8 2 0.9 0.8 2 0.8h36.3q1.1 0 1.9-0.8 0.8-0.9 0.8-2v-8.7q0-1.1-0.8-1.9-0.8-0.9-1.9-0.9h-36.6q-4 0-7.3-1.9-3.2-2-5.2-5.3-2.1-3.3-2.1-7.4v-9.4q0-4 2.1-7.2 2-3.3 5.2-5.3 3.3-2 7.3-2h36.9q4.1 0 7.3 2 3.4 2 5.3 5.3 2 3.2 2 7.2v1.7h-12.2v-1.3q0-1.2-0.8-1.9-0.8-0.9-1.9-0.9h-36.3q-1.1 0-2 0.9-0.8 0.7-0.8 1.9v8.7q0 1.1 0.8 2 0.9 0.8 2 0.8h36.6q4.1 0 7.3 2 3.4 1.9 5.3 5.3 2 3.2 2 7.2v9.4q0 4.1-2 7.3-1.9 3.3-5.3 5.3-3.2 2-7.3 2z"/><path fill-rule="evenodd" class="e" d="m425 127v-26.6h4v26.6zm8.2 0v-21.4h16.9q1.4 0 2.4 0.7 1.1 0.6 1.8 1.7 0.6 1.1 0.6 2.4v16.6h-3.9v-16.5q0-0.4-0.3-0.6-0.3-0.3-0.7-0.3h-11.9q-0.4 0-0.7 0.3-0.2 0.2-0.2 0.6v16.5zm46.4 0v-22.6h-11.3v-4h26.6v4h-11.3v22.6zm17.9 0v-16.6q0-1.3 0.6-2.4 0.7-1.1 1.8-1.7 1.1-0.7 2.4-0.7h11.9v4h-11.8q-0.4 0-0.7 0.3-0.3 0.2-0.3 0.6v16.5zm24 0q-1.3 0-2.4-0.7-1.1-0.6-1.7-1.7-0.7-1.1-0.7-2.4v-11.8q0-1.3 0.7-2.4 0.6-1.1 1.7-1.7 1.1-0.7 2.4-0.7h12.2q1.3 0 2.4 0.7 1.1 0.6 1.7 1.7 0.7 1.1 0.7 2.4v7.9h-17.8v3.8q0 0.4 0.3 0.7 0.3 0.2 0.6 0.2h16.9v4zm-0.8-12.4h13.7v-4.1q0-0.4-0.2-0.6-0.3-0.3-0.6-0.3h-12q-0.4 0-0.7 0.3-0.2 0.2-0.2 0.6zm21.7 12.4v-21.4h16.9q1.4 0 2.4 0.7 1.1 0.7 1.8 1.7 0.6 1.1 0.6 2.4v16.6h-4v-16.5q0-0.3-0.3-0.6-0.2-0.3-0.6-0.3h-11.9q-0.4 0-0.7 0.3-0.3 0.3-0.3 0.6v16.5zm29.4 0q-1.3 0-2.4-0.6-1.1-0.7-1.8-1.8-0.6-1.1-0.6-2.4v-11.8q0-1.3 0.6-2.4 0.7-1 1.8-1.7 1.1-0.7 2.4-0.7h13v-7h4v28.4zm0.1-3.9h12q0.3 0 0.6-0.3 0.3-0.3 0.3-0.7v-11.6q0-0.3-0.3-0.6-0.3-0.3-0.6-0.3h-12q-0.4 0-0.7 0.3-0.2 0.3-0.2 0.6v11.6q0 0.4 0.2 0.7 0.3 0.3 0.7 0.3zm40.5 3.9l-9.7-26.5h4.3l7 19.3 7.1-19.3h4.2l7.1 19.3 7-19.3h4.2l-9.6 26.5h-3.3l-7.5-20.6-7.6 20.6zm37.3 0q-1.3 0-2.4-0.6-1-0.7-1.7-1.8-0.7-1-0.7-2.4v-11.8q0-1.3 0.7-2.4 0.7-1 1.7-1.7 1.1-0.7 2.4-0.7h12.2q1.4 0 2.4 0.7 1.1 0.6 1.8 1.7 0.6 1.1 0.6 2.4v7.9h-17.8v3.8q0 0.4 0.3 0.7 0.3 0.3 0.7 0.3h16.8v3.9zm-0.8-12.4h13.8v-4.1q0-0.3-0.3-0.6-0.2-0.3-0.6-0.3h-12q-0.3 0-0.6 0.3-0.3 0.3-0.3 0.6zm32.5 12.5v-26.6h24.4v4h-20.3v7.3h16.3v4h-16.3v11.3zm31.2 0q-1.4 0-2.4-0.7-1.1-0.6-1.8-1.7-0.6-1.1-0.6-2.4v-11.8q0-1.4 0.6-2.4 0.7-1.1 1.8-1.8 1-0.6 2.4-0.6h12.1q1.4 0 2.4 0.6 1.1 0.7 1.8 1.8 0.6 1.1 0.6 2.4v11.8q0 1.3-0.6 2.4-0.7 1.1-1.8 1.7-1 0.7-2.4 0.7zm0.2-4h11.9q0.4 0 0.6-0.3 0.3-0.3 0.3-0.6v-11.6q0-0.4-0.3-0.6-0.2-0.3-0.6-0.3h-11.9q-0.4 0-0.7 0.3-0.3 0.2-0.3 0.6v11.6q0 0.3 0.3 0.6 0.3 0.3 0.7 0.3zm24.6 4q-1.3 0-2.4-0.7-1.1-0.6-1.7-1.7-0.7-1.1-0.7-2.4v-23.6h4v23.5q0 0.3 0.2 0.6 0.3 0.3 0.7 0.3h3.9v4zm11.8 0q-1.4 0-2.4-0.7-1.1-0.6-1.8-1.7-0.6-1.1-0.6-2.4v-23.6h4v23.5q0 0.3 0.2 0.6 0.3 0.3 0.7 0.3h3.9v4zm11.5 0q-1.4 0-2.4-0.7-1.1-0.6-1.8-1.7-0.6-1.1-0.6-2.4v-11.8q0-1.4 0.6-2.4 0.7-1.1 1.8-1.8 1-0.6 2.4-0.6h12.1q1.4 0 2.4 0.6 1.1 0.7 1.8 1.8 0.6 1.1 0.6 2.4v11.8q0 1.3-0.6 2.4-0.7 1.1-1.8 1.7-1 0.7-2.4 0.7zm0.1-4h12q0.4 0 0.6-0.3 0.3-0.3 0.3-0.6v-11.6q0-0.4-0.3-0.6-0.2-0.3-0.6-0.3h-12q-0.3 0-0.6 0.3-0.3 0.2-0.3 0.6v11.6q0 0.3 0.3 0.6 0.3 0.3 0.6 0.3zm26.7 4l-8.4-21.4h4.3l5.8 14.1 6.1-14.1h4.6l6.5 14.2 5.4-14.2h4.3l-8.1 21.4h-3.2l-7.2-15.9-6.8 15.9z"/><path class="f" d="m261 114.5h156"/><path class="g" d="m819 114.5h156"/></svg>