<svg width="13" height="13" viewBox="0 0 13 13" fill="none" xmlns="http://www.w3.org/2000/svg">
<path d="M12.0343 1.11543C11.9207 1.04169 11.7936 0.991051 11.6604 0.966416C11.5272 0.941781 11.3905 0.94363 11.258 0.971858C11.1255 1.00009 10.9999 1.05414 10.8883 1.13093C10.7767 1.20772 10.6813 1.30575 10.6077 1.4194L4.82742 10.3291L2.00848 7.72265C1.90902 7.63069 1.79242 7.55922 1.66535 7.51232C1.53827 7.46542 1.4032 7.44401 1.26785 7.44931C0.994493 7.46001 0.736587 7.57887 0.550865 7.77973C0.365143 7.98059 0.26682 8.247 0.277524 8.52035C0.288229 8.79371 0.407085 9.05162 0.607945 9.23734L4.30922 12.6594C4.30922 12.6594 4.41547 12.7509 4.46465 12.7828C4.57828 12.8566 4.70535 12.9073 4.83859 12.932C4.97183 12.9567 5.10862 12.9548 5.24114 12.9266C5.37367 12.8984 5.49933 12.8443 5.61095 12.7675C5.72257 12.6906 5.81795 12.5926 5.89165 12.4789L12.3383 2.5421C12.412 2.42847 12.4627 2.30143 12.4873 2.16823C12.5119 2.03503 12.5101 1.89828 12.4819 1.76579C12.4536 1.63331 12.3996 1.50768 12.3228 1.39609C12.246 1.2845 12.148 1.18913 12.0343 1.11543Z" fill="white"/>
</svg>
