<svg width="43" height="43" viewBox="0 0 43 43" fill="none" xmlns="http://www.w3.org/2000/svg">
<rect x="0.5" y="0.5" width="42" height="42" rx="8" fill="#42424A"/>
<path d="M23.2731 29.4525H15.307C14.8801 29.4674 14.4662 29.3043 14.1641 29.0022C13.8621 28.7002 13.699 28.2862 13.7138 27.8593V19.8933C13.699 19.4664 13.8621 19.0525 14.1641 18.7504C14.4662 18.4483 14.8801 18.2852 15.307 18.3001H18.4934V15.1137C18.4786 14.6867 18.6417 14.2728 18.9438 13.9708C19.2458 13.6687 19.6597 13.5056 20.0866 13.5205H28.0527C28.4796 13.5056 28.8935 13.6687 29.1956 13.9708C29.4976 14.2728 29.6607 14.6867 29.6459 15.1137V23.0797C29.6605 23.5066 29.4973 23.9203 29.1953 24.2223C28.8933 24.5243 28.4795 24.6875 28.0527 24.6729H24.8663V27.8593C24.8809 28.2862 24.7177 28.6999 24.4157 29.002C24.1137 29.304 23.6999 29.4671 23.2731 29.4525ZM15.307 19.8933V27.8593H23.2731V24.6729H20.0866C19.6598 24.6875 19.246 24.5243 18.944 24.2223C18.642 23.9203 18.4788 23.5066 18.4934 23.0797V19.8933H15.307ZM20.0866 15.1137V23.0797H28.0527V15.1137H20.0866Z" fill="#A3A3A3"/>
</svg>
