<svg width="46" height="50" viewBox="0 0 46 50" fill="none" xmlns="http://www.w3.org/2000/svg">
<path d="M19.6984 0.534559C19.2658 0.533027 18.8319 0.533465 18.3969 0.535324C16.3027 0.545059 14.175 0.600074 12.0292 0.679699L12.65 3.40237C14.8846 3.14971 17.3345 2.96159 19.7842 2.86753C21.1113 2.81656 22.4304 2.78965 23.7099 2.79643C27.5484 2.81645 31.0311 3.13878 33.3097 4.02165L34.284 4.39943L33.849 5.34936C30.6705 12.293 29.9354 18.9919 30.4335 25.5647C30.6793 17.7643 33.9218 10.8264 38.1783 1.93226C32.3862 0.969762 26.1871 0.556105 19.6984 0.534449V0.534559ZM22.7646 4.77722C21.8087 4.77798 20.8342 4.79734 19.8597 4.83475C15.3019 5.00975 10.7599 5.54459 7.79962 6.15775C11.1064 12.2914 13.7813 18.4391 15.5087 24.4323C15.7236 24.4252 15.9386 24.4268 16.1534 24.4373C16.5928 24.4588 17.0275 24.5184 17.4522 24.6112C15.694 18.9896 13.6913 13.8049 11.2018 8.62809L10.6393 7.45843L11.9175 7.23225C15.1283 6.66371 18.4424 6.44365 21.5965 6.44267C21.8067 6.44267 22.0165 6.44343 22.2252 6.44529C24.2294 6.46279 26.1609 6.56648 27.9505 6.72256L29.1596 6.82811L28.8069 7.98934C26.7616 14.7228 26.361 21.9541 27.5174 28.8342C27.5367 28.8521 27.5561 28.8698 27.5749 28.8878C27.992 28.7417 28.3821 28.5927 28.7458 28.4335C27.843 21.0623 28.243 13.4575 31.6146 5.55214C29.7331 5.07275 26.865 4.82217 23.7135 4.78279C23.3972 4.77888 23.0809 4.77695 22.7646 4.77722ZM38.618 5.58495C35.2322 12.7551 32.8274 18.501 32.4332 24.704C34.6248 17.3976 38.861 10.8479 43.6883 6.63987C42.0127 6.22191 40.3213 5.87 38.618 5.58495ZM6.35663 7.61156C4.30476 8.03462 2.30035 8.57165 0.361572 9.31365C1.30504 10.1318 3.01064 11.6537 5.08001 13.6765C6.03245 12.6962 7.00381 11.7277 8.01695 10.847C7.48034 9.75995 6.92683 8.68135 6.35663 7.61156ZM21.8904 8.4299C20.4007 8.42268 18.8758 8.46534 17.3454 8.57132C17.1849 10.0678 16.2998 11.4678 15.2427 12.8446C16.9305 16.8334 18.3881 20.9037 19.7004 25.2252C21.7101 25.818 23.6985 26.5188 25.3091 27.3584C24.7109 22.7146 24.7927 17.9562 25.5694 13.3029C24.1602 11.8471 23.426 10.2305 23.3672 8.4532C22.875 8.44008 22.3827 8.43232 21.8904 8.4299ZM41.7986 11.3814C39.0938 14.5861 36.7104 18.5998 35.0863 22.9655C38.0683 18.7237 41.7352 15.4151 45.6385 13.078C44.3668 12.4939 43.0867 11.9283 41.7986 11.3814ZM8.90518 12.6894C7.30896 14.1318 5.73178 15.8631 4.08929 17.5125C7.6209 19.6115 10.6289 22.0973 13.0828 24.9128C13.2351 24.8553 13.389 24.8036 13.5438 24.7564C12.3956 20.8084 10.822 16.7684 8.90518 12.6894ZM34.4319 26.3342C32.6385 28.4985 30.95 29.6411 28.6252 30.5527C28.8867 31.5612 28.4983 32.7189 27.6043 33.6044C27.0784 34.1252 26.4175 34.7187 25.4513 35.1045C25.5907 35.187 25.733 35.2646 25.8779 35.3371C27.2302 36.012 29.6193 35.7943 31.8388 34.7849C34.0515 33.7787 36.0281 32.0405 36.7607 30.2796C37.1279 29.2898 36.8657 28.7735 36.2229 28.0165C35.7653 27.4778 35.0969 26.9347 34.4319 26.3343V26.3342ZM15.8295 26.3982C14.6575 26.3875 13.4673 26.7257 12.4837 27.4657C11.0848 28.5183 10.0064 30.3952 9.99674 33.5835V33.6054L9.99565 33.6273C9.67627 40.3408 10.1707 43.4382 11.1501 45.1188C12.0146 46.6021 13.4524 47.3122 15.5557 48.6181C15.6559 48.3549 15.7603 48.0313 15.8582 47.623C16.1072 46.5841 16.3133 45.1572 16.4439 43.5789C16.7052 40.4225 16.667 36.6325 16.23 33.9052L15.9991 32.4625L17.4228 32.7901C20.8806 33.5856 22.8587 33.6796 24.0071 33.477C25.1558 33.2742 25.5451 32.8729 26.2188 32.2056C26.8521 31.5787 26.8403 31.353 26.7062 31.0002C26.572 30.6472 26.0336 30.0656 25.1202 29.5091C23.2934 28.3961 20.1891 27.3641 17.2875 26.5946C16.8116 26.4686 16.3218 26.4027 15.8295 26.3982ZM36.5123 33.9906C35.4171 35.0575 34.0694 35.9332 32.6539 36.577C30.3589 37.6207 27.8345 38.0981 25.7402 37.4031C25.0008 37.6783 24.5713 37.9945 24.3546 38.2562C24.0573 38.6154 24.0387 38.8797 24.1395 39.2581C24.2401 39.6366 24.5403 40.0859 24.9116 40.4092C25.2827 40.7325 25.7238 40.9005 25.8914 40.9084C31.0095 41.1514 33.2246 39.6826 35.9842 37.979C36.789 37.4822 37.097 36.4758 37.0199 35.4709C36.9813 34.9684 36.8351 34.4963 36.6663 34.1989C36.6244 34.123 36.5726 34.053 36.5123 33.9906ZM18.3356 34.9855C18.6339 37.7273 18.6388 40.9261 18.4058 43.7413C18.2694 45.3898 18.0586 46.889 17.7726 48.0818C17.6483 48.6009 17.5115 49.0612 17.3461 49.4664L33.3911 48.7593C33.2099 48.0868 33.0253 47.4114 32.8408 46.7357C32.2244 46.9408 31.5943 47.1025 30.9552 47.2195L30.96 47.2994L30.0504 47.356C29.4903 47.4232 28.9072 47.4603 28.3023 47.4645L19.1301 48.0344L19.4028 46.7649C20.272 42.7173 20.3521 39.1536 19.816 35.2549C19.3208 35.1747 18.8272 35.0849 18.3355 34.9855H18.3356ZM21.8325 35.4978C22.2644 38.9905 22.2124 42.3239 21.5694 45.9103L23.6764 45.7795C23.346 45.2919 23.1189 44.7418 23.0092 44.1632C22.8674 43.4107 22.9463 42.5731 23.4386 41.8805C23.4604 41.8498 23.4839 41.8203 23.5072 41.7907C22.9334 41.2608 22.4541 40.5808 22.2369 39.7646C22.0057 38.8958 22.1501 37.832 22.8381 37.0007C23.0655 36.7262 23.3404 36.4784 23.6631 36.2552C23.3777 36.0277 23.1274 35.7866 22.9113 35.5353C22.5762 35.5376 22.2173 35.5252 21.8325 35.4978ZM36.3429 40.068C33.7774 41.627 30.8949 43.117 25.798 42.875C25.6317 42.8669 25.4664 42.8444 25.3039 42.8078C25.169 42.8683 25.0971 42.9451 25.0434 43.0207C24.938 43.1689 24.8758 43.4364 24.9439 43.7987C25.0804 44.5235 25.767 45.3178 26.4063 45.3922C30.9328 45.9186 34.0602 44.4378 35.9592 42.715C36.8342 41.9212 36.8416 41.4135 36.7128 40.861C36.6483 40.5851 36.5061 40.3175 36.3429 40.068ZM35.6119 45.4342C35.3081 45.6247 34.9962 45.802 34.6771 45.9658C34.8576 46.6276 35.0385 47.2894 35.2171 47.9514L37.3958 47.5607C36.8336 47.0808 36.3937 46.5813 36.0407 46.0845C35.883 45.8626 35.7439 45.6469 35.6119 45.4342Z" fill="white"/>
</svg>
