<svg width="35" height="35" viewBox="0 0 40 44" fill="none" xmlns="http://www.w3.org/2000/svg">
<path d="M20 43.987L0.166626 32.9947V11.0053L20 0.0130005L39.8333 11.0053V32.9947L20 43.987ZM13.4573 17.0183C14.2615 16.0259 15.2322 15.2466 16.3693 14.6803C17.5064 14.1157 18.7166 13.8333 20 13.8333C21.2833 13.8333 22.4935 14.1157 23.6306 14.6803C24.7662 15.2466 25.7368 16.0259 26.5426 17.0183L36.1443 11.675L20 2.687L3.85329 11.675L13.4573 17.0183ZM18.8333 40.6573V30.1433C16.8235 29.7793 15.1544 28.8359 13.826 27.313C12.4975 25.7901 11.8333 24.0191 11.8333 22C11.8333 21.482 11.8753 20.9936 11.9593 20.5347C12.0433 20.0758 12.1732 19.6068 12.349 19.1277L2.49996 13.6093V31.5993L18.8333 40.6573ZM20 27.8333C21.6426 27.8333 23.0255 27.2718 24.1486 26.1487C25.2717 25.0256 25.8333 23.6427 25.8333 22C25.8333 20.3573 25.2717 18.9744 24.1486 17.8513C23.0255 16.7282 21.6426 16.1667 20 16.1667C18.3573 16.1667 16.9744 16.7282 15.8513 17.8513C14.7282 18.9744 14.1666 20.3573 14.1666 22C14.1666 23.6427 14.7282 25.0256 15.8513 26.1487C16.9744 27.2718 18.3573 27.8333 20 27.8333ZM21.1666 40.6573L37.5 31.597V13.607L27.651 19.1277C27.8267 19.6068 27.9566 20.0758 28.0406 20.5347C28.1246 20.9936 28.1666 21.482 28.1666 22C28.1666 24.0191 27.5024 25.7901 26.174 27.313C24.8455 28.8359 23.1764 29.7793 21.1666 30.1433V40.6573Z" fill="white"/>
</svg>
