<svg width="20" height="20" viewBox="0 0 28 28" fill="none" xmlns="http://www.w3.org/2000/svg">
<g clip-path="url(#clip0_199_1855)">
<path d="M14 28C21.732 28 28 21.732 28 14C28 6.26801 21.732 0 14 0C6.26801 0 0 6.26801 0 14C0 21.732 6.26801 28 14 28Z" fill="#26A17B"/>
<path fill-rule="evenodd" clip-rule="evenodd" d="M15.6819 15.2101V15.2084C15.5857 15.2154 15.0896 15.2451 13.9827 15.2451C13.0989 15.2451 12.4768 15.2189 12.2581 15.2084V15.211C8.85607 15.0614 6.31682 14.469 6.31682 13.7603C6.31682 13.0524 8.85607 12.46 12.2581 12.3078V14.6213C12.4803 14.637 13.1173 14.6746 13.9976 14.6746C15.0537 14.6746 15.5831 14.6309 15.6819 14.6221V12.3095C19.0769 12.4609 21.6101 13.0533 21.6101 13.7603C21.6101 14.469 19.0769 15.0596 15.6819 15.2101ZM15.6819 12.0689V9.99863H20.4192V6.84163H7.52082V9.99863H12.2581V12.068C8.40807 12.2448 5.5127 13.0078 5.5127 13.9213C5.5127 14.8348 8.40807 15.5969 12.2581 15.7745V22.4088H15.6819V15.7728C19.5258 15.596 22.4142 14.8339 22.4142 13.9213C22.4142 13.0086 19.5258 12.2465 15.6819 12.0689Z" fill="white"/>
</g>
<defs>
<clipPath id="clip0_199_1855">
<rect width="28" height="28" fill="white"/>
</clipPath>
</defs>
</svg>
