<svg width="24" height="24" viewBox="0 0 24 24" fill="none" xmlns="http://www.w3.org/2000/svg">
<path d="M8 13C8 11.585 8 10.878 8.44 10.44C8.879 10 9.586 10 11 10H13C14.415 10 15.122 10 15.56 10.44C16 10.879 16 11.586 16 13V22V19C16 17.585 16 16.878 16.44 16.44C16.879 16 17.586 16 19 16C20.415 16 21.122 16 21.56 16.44C22 16.879 22 17.586 22 19V22M8 17V22C8 20.586 8 19.879 7.56 19.44C7.122 19 6.415 19 5 19C3.586 19 2.879 19 2.44 19.44C2 19.878 2 20.585 2 22" stroke="#9F9F9F" stroke-width="1.5" stroke-linecap="round"/>
<path d="M11.1458 3.023C11.5258 2.34 11.7158 2 11.9998 2C12.2838 2 12.4738 2.34 12.8538 3.023L12.9518 3.199C13.0598 3.393 13.1138 3.489 13.1978 3.553C13.2828 3.617 13.3878 3.641 13.5978 3.688L13.7878 3.732C14.5258 3.899 14.8948 3.982 14.9828 4.264C15.0708 4.547 14.8188 4.841 14.3158 5.429L14.1858 5.581C14.0428 5.748 13.9708 5.831 13.9388 5.935C13.9068 6.039 13.9178 6.15 13.9388 6.373L13.9588 6.576C14.0348 7.361 14.0728 7.754 13.8438 7.928C13.6138 8.103 13.2678 7.943 12.5768 7.625L12.3988 7.543C12.2018 7.453 12.1038 7.407 11.9998 7.407C11.8958 7.407 11.7978 7.453 11.6008 7.543L11.4228 7.625C10.7318 7.943 10.3858 8.103 10.1558 7.928C9.92579 7.754 9.96479 7.361 10.0408 6.576L10.0608 6.373C10.0818 6.15 10.0928 6.039 10.0608 5.935C10.0288 5.832 9.95679 5.748 9.81379 5.581L9.68379 5.429C9.18079 4.841 8.92879 4.547 9.01679 4.264C9.10479 3.982 9.47379 3.899 10.2118 3.732L10.4018 3.688C10.6118 3.641 10.7168 3.618 10.8018 3.553C10.8858 3.489 10.9398 3.393 11.0478 3.199L11.1458 3.023Z" stroke="#9F9F9F" stroke-width="1.5"/>
</svg>
