<svg width="24" height="24" viewBox="0 0 24 24" fill="none" xmlns="http://www.w3.org/2000/svg">
<path d="M2.50179 21.1155C2.50251 21.1667 2.51331 21.2173 2.53357 21.2643C2.55384 21.3114 2.58317 21.354 2.6199 21.3897C2.65662 21.4254 2.70002 21.4535 2.74762 21.4724C2.79522 21.4914 2.84607 21.5007 2.89729 21.5H21.1008C21.152 21.5008 21.203 21.4915 21.2506 21.4726C21.2983 21.4537 21.3417 21.4256 21.3785 21.3898C21.4153 21.3541 21.4447 21.3115 21.465 21.2645C21.4853 21.2174 21.4961 21.1668 21.4968 21.1155V20.6565C21.5058 20.518 21.5243 19.828 21.0693 19.0645C20.7823 18.583 20.3658 18.1675 19.8313 17.8285C19.1848 17.4185 18.3623 17.122 17.3673 16.9435C16.8622 16.8724 16.3612 16.775 15.8663 16.6515C14.5503 16.3155 14.4353 16.018 14.4343 16.015C14.4267 15.9856 14.4156 15.9573 14.4013 15.9305C14.3903 15.8755 14.3638 15.6665 14.4148 15.107C14.5438 13.6855 15.3063 12.8455 15.9188 12.1705C16.1118 11.958 16.2943 11.7565 16.4348 11.5595C17.0413 10.7095 17.0973 9.742 17.0998 9.682C17.1021 9.57568 17.0874 9.46969 17.0563 9.368C16.9963 9.183 16.8848 9.068 16.8028 8.983C16.7834 8.96354 16.7645 8.94353 16.7463 8.923C16.7403 8.916 16.7243 8.897 16.7388 8.8015C16.7878 8.49385 16.8217 8.18398 16.8403 7.873C16.8683 7.372 16.8898 6.623 16.7603 5.8935C16.7413 5.75416 16.7125 5.61632 16.6743 5.481C16.5378 4.979 16.3188 4.55 16.0143 4.196C15.9618 4.1385 14.6878 2.796 10.9893 2.521C10.4778 2.483 9.97229 2.5035 9.47429 2.529C9.32701 2.53227 9.18044 2.55036 9.03679 2.583C8.65479 2.6815 8.55279 2.9235 8.52629 3.059C8.48179 3.284 8.55979 3.458 8.61129 3.574C8.61879 3.5905 8.62829 3.611 8.61179 3.665C8.52629 3.798 8.39079 3.918 8.25329 4.0315C8.21329 4.065 7.28629 4.865 7.23529 5.9095C7.09779 6.704 7.10779 7.9415 7.27029 8.797C7.28029 8.8445 7.29379 8.9145 7.27129 8.962C7.09629 9.1185 6.89829 9.296 6.89879 9.701C6.90079 9.742 6.95729 10.709 7.56379 11.5595C7.70379 11.7565 7.88629 11.9575 8.07879 12.17L8.07979 12.1705C8.69229 12.8455 9.45479 13.6855 9.58379 15.1065C9.63429 15.6665 9.60779 15.875 9.59729 15.9305C9.58277 15.9572 9.57153 15.9856 9.56379 16.015C9.56329 16.018 9.44879 16.3145 8.13879 16.65C7.38279 16.8435 6.63879 16.9425 6.61629 16.945C5.64929 17.1085 4.83179 17.398 4.18629 17.8055C3.65379 18.142 3.23629 18.559 2.94629 19.044C2.48229 19.819 2.49479 20.525 2.50129 20.654L2.50179 21.1155Z" stroke="#9F9F9F" stroke-width="2" stroke-linejoin="round"/>
<g clip-path="url(#clip0_108_3037)">
<circle cx="19" cy="19" r="3" fill="white"/>
<path d="M23 19.5C23 20.6935 22.5259 21.8381 21.682 22.682C20.8381 23.5259 19.6935 24 18.5 24C17.3065 24 16.1619 23.5259 15.318 22.682C14.4741 21.8381 14 20.6935 14 19.5C14 18.3065 14.4741 17.1619 15.318 16.318C16.1619 15.4741 17.3065 15 18.5 15C19.6935 15 20.8381 15.4741 21.682 16.318C22.5259 17.1619 23 18.3065 23 19.5ZM18.5 16.9688C18.5 16.8942 18.4704 16.8226 18.4176 16.7699C18.3649 16.7171 18.2933 16.6875 18.2188 16.6875C18.1442 16.6875 18.0726 16.7171 18.0199 16.7699C17.9671 16.8226 17.9375 16.8942 17.9375 16.9688V20.0625C17.9375 20.1121 17.9506 20.1608 17.9755 20.2036C18.0004 20.2465 18.0362 20.282 18.0792 20.3066L20.048 21.4316C20.1126 21.4665 20.1883 21.4748 20.2589 21.4546C20.3295 21.4345 20.3895 21.3875 20.4259 21.3237C20.4624 21.26 20.4724 21.1845 20.4539 21.1134C20.4354 21.0423 20.3899 20.9813 20.327 20.9434L18.5 19.8994V16.9688Z" fill="#9F9F9F"/>
</g>
<defs>
<clipPath id="clip0_108_3037">
<rect width="9" height="9" fill="white" transform="translate(14 15)"/>
</clipPath>
</defs>
</svg>
