<svg width="24" height="24" viewBox="0 0 24 24" fill="none" xmlns="http://www.w3.org/2000/svg">
<path d="M2.52246 2.25441C5.75965 4.16691 8.25354 6.78582 8.37888 9.44091C6.0431 9.47204 4.98007 8.76553 3.59904 7.05028C4.4299 11.4129 6.19559 13.7935 8.32029 14.3892C7.28876 15.6533 5.46551 15.8168 3.74412 15.5771C5.42679 17.1673 8.20287 18.9011 10.7329 19.5497C9.93368 20.2688 8.91687 20.6989 7.5454 20.9165C20.1696 26.2737 25.6652 21.3979 21.3837 7.91447C20.8196 9.111 20.0192 9.8416 18.5551 10.6098C18.1845 8.01769 17.0828 3.47916 14.0712 2.559C15.2132 4.5143 15.1016 7.22049 13.8837 9.07168C12.5795 5.7525 7.5867 2.54447 2.52246 2.25441ZM16.9731 13.3477C18.1978 13.3416 19.414 13.8639 20.2617 14.8814C21.7687 16.69 21.5254 19.3641 19.7168 20.8711C17.9081 22.3781 15.234 22.1348 13.7271 20.3262C12.2201 18.5175 12.4632 15.8434 14.272 14.3365C15.0632 13.6771 16.0205 13.3524 16.9731 13.3477Z" fill="#9F9F9F"/>
</svg>
