<svg fill="#b2b2b2" width="22px" height="22px" viewBox="0 0 0.66 0.66" xmlns="http://www.w3.org/2000/svg">
  <path d="M0.137 0.605A0.11 0.11 0 0 0 0.244 0.523h0.172A0.111 0.111 0 1 0 0.493 0.39L0.407 0.244a0.11 0.11 0 1 0 -0.155 0L0.167 0.391A0.109 0.109 0 0 0 0.137 0.385a0.11 0.11 0 0 0 0 0.22ZM0.523 0.44a0.055 0.055 0 1 1 -0.055 0.055A0.055 0.055 0 0 1 0.523 0.44ZM0.33 0.11a0.055 0.055 0 1 1 -0.055 0.055 0.055 0.055 0 0 1 0.055 -0.055ZM0.3 0.27a0.109 0.109 0 0 0 0.03 0.005 0.107 0.107 0 0 0 0.03 -0.004l0.085 0.146a0.11 0.11 0 0 0 -0.029 0.05H0.244A0.11 0.11 0 0 0 0.215 0.417ZM0.137 0.44a0.055 0.055 0 1 1 -0.055 0.055A0.055 0.055 0 0 1 0.137 0.44Z"/>
</svg>
