<svg width="30" height="30" viewBox="0 0 56 56" fill="none" xmlns="http://www.w3.org/2000/svg">
<path d="M19.1241 48.3723C15.1732 46.6419 11.8122 43.7976 9.45217 40.1874C7.09209 36.5772 5.83521 32.3575 5.83521 28.0443C5.83521 23.7311 7.09209 19.5114 9.45217 15.9012C11.8122 12.291 15.1732 9.44674 19.1241 7.71631M36.8784 48.3723C40.8292 46.6419 44.1902 43.7976 46.5503 40.1874C48.9103 36.5772 50.1672 32.3575 50.1672 28.0443C50.1672 23.7311 48.9103 19.5114 46.5503 15.9012C44.1902 12.291 40.8292 9.44674 36.8784 7.71631" stroke="white" stroke-width="3.5" stroke-linecap="round" stroke-linejoin="round"/>
<path d="M30.0044 10.1104L14.8937 30.5504C14.7794 30.7088 14.7013 30.8904 14.6651 31.0824C14.6159 31.2761 14.6159 31.479 14.6651 31.6727C14.7416 31.8553 14.8667 32.0135 15.0267 32.1301C15.1798 32.2287 15.358 32.2813 15.5401 32.2817H26.9594L25.2281 45.6051C25.2024 45.6847 25.2024 45.7704 25.2281 45.8501C25.2645 45.9247 25.3243 45.9853 25.3984 46.0227C25.4721 46.0505 25.5534 46.0505 25.6271 46.0227C25.6696 46.017 25.7103 46.0021 25.7466 45.9791C25.7828 45.9562 25.8137 45.9257 25.8371 45.8897L40.9454 25.4497C41.0629 25.2862 41.1411 25.0978 41.1741 24.8991C41.1916 24.7034 41.159 24.5065 41.0794 24.3269C40.9998 24.1472 40.8758 23.9909 40.7191 23.8724C40.5662 23.773 40.3881 23.7195 40.2057 23.7184H28.7864L30.5177 10.3951C30.5434 10.3154 30.5434 10.2297 30.5177 10.1501C30.4807 10.0751 30.42 10.0144 30.3451 9.97741C30.2721 9.95024 30.1917 9.95024 30.1187 9.97741C30.0675 10.0092 30.0269 10.0555 30.0021 10.1104" stroke="white" stroke-width="3.5" stroke-linecap="round" stroke-linejoin="round"/>
</svg>
