<svg width="24" height="24" viewBox="0 0 24 24" fill="none" xmlns="http://www.w3.org/2000/svg">
<path d="M23 2.83333V14.75C23 15.2362 22.8068 15.7025 22.463 16.0464C22.1192 16.3902 21.6529 16.5833 21.1667 16.5833H8.7126L9.89854 17.7681C9.98371 17.8533 10.0513 17.9544 10.0974 18.0657C10.1435 18.177 10.1672 18.2962 10.1672 18.4167C10.1672 18.5371 10.1435 18.6564 10.0974 18.7677C10.0513 18.8789 9.98371 18.98 9.89854 19.0652C9.81337 19.1504 9.71227 19.2179 9.60099 19.264C9.48971 19.3101 9.37045 19.3338 9.25 19.3338C9.12955 19.3338 9.01029 19.3101 8.89901 19.264C8.78773 19.2179 8.68663 19.1504 8.60146 19.0652L5.85146 16.3152C5.76623 16.2301 5.69862 16.129 5.65249 16.0177C5.60636 15.9064 5.58261 15.7871 5.58261 15.6667C5.58261 15.5462 5.60636 15.4269 5.65249 15.3156C5.69862 15.2044 5.76623 15.1033 5.85146 15.0181L8.60146 12.2681C8.77346 12.0961 9.00675 11.9995 9.25 11.9995C9.49325 11.9995 9.72654 12.0961 9.89854 12.2681C10.0705 12.4401 10.1672 12.6734 10.1672 12.9167C10.1672 13.1599 10.0705 13.3932 9.89854 13.5652L8.7126 14.75H21.1667V2.83333H8.33333V3.75C8.33333 3.99312 8.23676 4.22627 8.06485 4.39818C7.89294 4.57009 7.65978 4.66667 7.41667 4.66667C7.17355 4.66667 6.94039 4.57009 6.76849 4.39818C6.59658 4.22627 6.5 3.99312 6.5 3.75V2.83333C6.5 2.3471 6.69315 1.88079 7.03697 1.53697C7.38079 1.19315 7.8471 1 8.33333 1H21.1667C21.6529 1 22.1192 1.19315 22.463 1.53697C22.8068 1.88079 23 2.3471 23 2.83333ZM16.5833 19.3333C16.3402 19.3333 16.1071 19.4299 15.9352 19.6018C15.7632 19.7737 15.6667 20.0069 15.6667 20.25V21.1667H2.83333V9.25H15.2874L14.1015 10.4348C13.9295 10.6068 13.8328 10.8401 13.8328 11.0833C13.8328 11.3266 13.9295 11.5599 14.1015 11.7319C14.2735 11.9039 14.5068 12.0005 14.75 12.0005C14.9933 12.0005 15.2265 11.9039 15.3985 11.7319L18.1485 8.98188C18.2338 8.89674 18.3014 8.79564 18.3475 8.68436C18.3936 8.57308 18.4174 8.4538 18.4174 8.33333C18.4174 8.21287 18.3936 8.09359 18.3475 7.98231C18.3014 7.87102 18.2338 7.76993 18.1485 7.68479L15.3985 4.93479C15.2265 4.76279 14.9933 4.66616 14.75 4.66616C14.5068 4.66616 14.2735 4.76279 14.1015 4.93479C13.9295 5.1068 13.8328 5.34008 13.8328 5.58333C13.8328 5.82658 13.9295 6.05987 14.1015 6.23188L15.2874 7.41667H2.83333C2.3471 7.41667 1.88079 7.60982 1.53697 7.95364C1.19315 8.29745 1 8.76377 1 9.25V21.1667C1 21.6529 1.19315 22.1192 1.53697 22.463C1.88079 22.8068 2.3471 23 2.83333 23H15.6667C16.1529 23 16.6192 22.8068 16.963 22.463C17.3068 22.1192 17.5 21.6529 17.5 21.1667V20.25C17.5 20.0069 17.4034 19.7737 17.2315 19.6018C17.0596 19.4299 16.8264 19.3333 16.5833 19.3333Z" fill="#9F9F9F"/>
</svg>
