<svg fill="#c7c7c7" version="1.1" id="Layer_1" xmlns="http://www.w3.org/2000/svg" xmlns:xlink="http://www.w3.org/1999/xlink" viewBox="0 0 256 256" enable-background="new 0 0 256 256" xml:space="preserve" stroke="#c7c7c7"><g id="SVGRepo_bgCarrier" stroke-width="0"></g><g id="SVGRepo_tracerCarrier" stroke-linecap="round" stroke-linejoin="round"></g><g id="SVGRepo_iconCarrier"> <path d="M192.498,124.8c9.278,0,16.8,7.522,16.8,16.8s-7.522,16.8-16.8,16.8s-16.8-7.522-16.8-16.8S183.22,124.8,192.498,124.8z M171.798,166.6c9.278,0,16.8,7.522,16.8,16.8s-7.522,16.8-16.8,16.8s-16.8-7.522-16.8-16.8S162.52,166.6,171.798,166.6z M144.998,203.3h-18.9h-18.9c-11.5,0-18.7,9.5-18.7,21.4V254h12.9v-25.9c0-1.2,1-2,2-2c1.2,0,2,0.8,2,2v25.8h41.5v-25.8 c0-1.2,1-2,2-2c1.2,0,2,1,2,2v25.8h12.9v-29.1C163.998,212.8,156.698,203.3,144.998,203.3z M149.698,124.8 c9.278,0,16.8,7.522,16.8,16.8s-7.522,16.8-16.8,16.8s-16.8-7.522-16.8-16.8S140.42,124.8,149.698,124.8z M199.098,183.4 c0,9.3,7.5,16.8,16.8,16.8s16.8-7.5,16.8-16.8s-7.5-16.8-16.8-16.8S199.098,174.1,199.098,183.4z M197.398,203.3 c-11.5,0-18.7,9.5-18.7,21.4V254h12.9v-25.9c0-1.2,1-2,2-2c1.2,0,2,0.8,2,2v25.8h41.5v-25.8c0-1.2,1-2,2-2c1.2,0,2,1,2,2v25.8h12.9 v-29.1c0.2-12.1-7.1-21.6-18.7-21.6h-18.9h-19V203.3z M39.798,166.6c9.278,0,16.8,7.522,16.8,16.8s-7.522,16.8-16.8,16.8 s-16.8-7.522-16.8-16.8S30.52,166.6,39.798,166.6z M14.798,253.9v-25.8c0-1.2,1-2,2-2c1.2,0,2,0.8,2,2v25.8h41.5v-25.8 c0-1.2,1-2,2-2c1.2,0,2,1,2,2v25.8h12.9v-29.1c0.2-12.1-7.1-21.6-18.7-21.6h-18.9h-18.9c-11.5,0-18.7,9.5-18.7,21.4v29.3 L14.798,253.9L14.798,253.9z M109.298,183.4c0,9.3,7.5,16.8,16.8,16.8c9.3,0,16.8-7.5,16.8-16.8s-7.5-16.8-16.8-16.8 S109.298,174.1,109.298,183.4z M61.298,124.8c9.278,0,16.8,7.522,16.8,16.8s-7.522,16.8-16.8,16.8s-16.8-7.522-16.8-16.8 S52.02,124.8,61.298,124.8z M106.698,124.8c9.278,0,16.8,7.522,16.8,16.8s-7.522,16.8-16.8,16.8s-16.8-7.522-16.8-16.8 S97.42,124.8,106.698,124.8z M84.098,166.6c9.278,0,16.8,7.522,16.8,16.8s-7.522,16.8-16.8,16.8s-16.8-7.522-16.8-16.8 S74.82,166.6,84.098,166.6z M129.877,66.392l-67.735,0.051c0.103-6.069,1.286-13.166,3.292-19.39l15.944,6.12 c0.566-1.697,1.132-3.292,1.8-4.835l-15.995-6.017c4.063-9.772,10.441-18.258,18.361-24.996l10.441,13.578 c1.337-1.131,2.674-2.263,4.115-3.189L89.709,14.189C99.841,6.886,112.082,2.463,125.454,2v17.075c1.234,0,3.652,0,5.452,0V2 c12.755,0.566,25.099,4.886,35.179,12.086l-10.492,13.526c1.44,1.029,2.777,2.057,4.115,3.189l10.441-13.578 c8.023,6.738,14.349,15.224,18.515,24.996l-15.995,6.069c0.72,1.594,1.337,3.189,1.903,4.886l15.944-6.326 c2.057,6.223,3.292,13.475,3.343,19.544l-56.523,0.051l7.303-36.671l-7.098-1.389L129.877,66.392z M134.918,76.987l2.314-10.543 h-7.355l-2.212,9.926c-3.703,0.566-6.943,2.469-9.258,5.143c-2.314,2.674-3.703,6.172-3.703,9.978h30.55 c0.051-2.16-0.36-4.166-1.132-6.017C142.427,81.462,139.083,78.376,134.918,76.987z"></path> </g></svg>