<svg width="24" height="24" viewBox="0 0 24 24" fill="none" xmlns="http://www.w3.org/2000/svg">
<path d="M3 15V16.5H6.4395L1.5 21.4395L2.5605 22.5L7.5 17.5605V21H9V15H3ZM21 9H16.5C16.1023 8.9996 15.721 8.84144 15.4398 8.56022C15.1586 8.279 15.0004 7.8977 15 7.5V3C15.0004 2.6023 15.1586 2.221 15.4398 1.93978C15.721 1.65856 16.1023 1.5004 16.5 1.5H21C21.3977 1.5004 21.779 1.65856 22.0602 1.93978C22.3414 2.221 22.4996 2.6023 22.5 3V7.5C22.4996 7.8977 22.3414 8.279 22.0602 8.56022C21.779 8.84144 21.3977 8.9996 21 9ZM16.5 3V7.5H21V3H16.5Z" fill="#9F9F9F"/>
<path d="M18 19.5H12V18H18V12.75H6C5.6023 12.7496 5.221 12.5914 4.93978 12.3102C4.65856 12.029 4.5004 11.6477 4.5 11.25V6C4.5004 5.6023 4.65856 5.221 4.93978 4.93978C5.221 4.65856 5.6023 4.5004 6 4.5H13.5V6H6V11.25H18C18.3977 11.2504 18.779 11.4086 19.0602 11.6898C19.3414 11.971 19.4996 12.3523 19.5 12.75V18C19.4996 18.3977 19.3414 18.779 19.0602 19.0602C18.779 19.3414 18.3977 19.4996 18 19.5Z" fill="#9F9F9F"/>
</svg>
