<svg width="25" height="24" xmlns="http://www.w3.org/2000/svg" clip-rule="evenodd" fill-rule="evenodd" image-rendering="optimizeQuality" text-rendering="geometricPrecision" shape-rendering="geometricPrecision">

 <g>
  <title>Layer 1</title>
  <path stroke-width="0.2" fill="#b2b2b2" stroke="null" id="svg_1" d="m10.26302,5.75053c-0.36392,-0.79138 -0.69427,-1.59108 -0.97862,-2.40199l-0.01337,-0.0384l-0.05687,-0.16503c0.29872,-0.24094 0.77194,-0.37761 1.19108,-0.46331c1.73729,-0.35198 4.52797,-0.14495 5.48668,0.44919l-1.14983,2.01566c0.61834,-0.59895 0.82612,-0.84486 1.19507,-1.17852a3.56936,2.63157 0 0 1 0.43845,0.25065c0.32705,0.21829 0.61909,0.45952 0.67825,0.79576c0.03831,0.2181 -0.04629,0.43962 -0.30944,0.66619l-2.63823,2.26543c-0.33958,-0.04108 -0.67147,-0.10114 -0.99338,-0.18555c0.15335,-0.26923 0.32306,-0.53426 0.47966,-0.80481l-0.96056,0.76483c-1.00057,-0.15561 -1.80513,-0.06275 -2.55502,0.22961l-2.67555,-2.36742c-0.15889,-0.1412 -0.23127,-0.28232 -0.23062,-0.42355c0.01372,-0.38354 0.47282,-0.68299 0.86802,-0.88852l0.00314,-0.00158c0.31299,-0.16128 0.64862,-0.28754 0.89461,-0.36294l1.32652,1.8443zm2.6961,8.43863c-0.01561,-0.13035 -0.0866,-0.23083 -0.21286,-0.30391c-0.08735,-0.0505 -0.20119,-0.08356 -0.34107,-0.09883l0,0.75615l0.25447,0.04259c0.2421,0.03895 0.45711,0.09044 0.64408,0.15525c0.18588,0.06469 0.34222,0.14278 0.46958,0.23234a1.21453,0.89543 0 0 1 0.28939,0.30891c0.06515,0.11703 0.09897,0.24822 0.10122,0.39258c-0.00224,0.22917 -0.08092,0.42502 -0.23526,0.5895c-0.15535,0.16352 -0.37829,0.28964 -0.66882,0.37688c-0.24245,0.07304 -0.52755,0.11527 -0.85465,0.12696l0,0.41005l-0.39415,0l0,-0.41035c-0.32845,-0.01243 -0.62009,-0.05624 -0.8748,-0.13255c-0.3063,-0.09044 -0.54386,-0.22822 -0.71282,-0.41333c-0.16996,-0.18515 -0.25671,-0.41925 -0.26125,-0.70234l1.13736,0c0.00893,0.11622 0.05183,0.2142 0.12596,0.29137c0.07553,0.07808 0.17914,0.13693 0.31084,0.17691c0.08371,0.02556 0.17525,0.04285 0.27472,0.05226l0,-0.798l-0.35245,-0.06043c-0.42553,-0.07216 -0.75992,-0.18846 -1.00546,-0.34948c-0.24434,-0.16098 -0.36592,-0.37864 -0.36477,-0.65335c-0.00115,-0.22413 0.08107,-0.42083 0.24549,-0.58939c0.16433,-0.16852 0.39176,-0.29972 0.68344,-0.39435c0.23791,-0.07661 0.5021,-0.12214 0.79374,-0.13638l0,-0.40821l0.39415,0l0,0.40755c0.30061,0.01357 0.56746,0.05962 0.79943,0.13789c0.28161,0.09548 0.49886,0.22833 0.65431,0.39928c0.15535,0.17106 0.23402,0.3686 0.23756,0.59443l-1.13736,0zm-0.94809,-0.40273c-0.06869,0.00725 -0.1304,0.01868 -0.18458,0.03409c-0.10252,0.02986 -0.17904,0.07058 -0.22978,0.12122c-0.05168,0.05142 -0.07767,0.11045 -0.07992,0.17599c-0.00224,0.05484 0.01232,0.10217 0.04515,0.14362c0.03253,0.04156 0.08097,0.07716 0.14397,0.10868c0.06316,0.03163 0.13973,0.05903 0.22863,0.08228c0.02469,0.0064 0.05029,0.01254 0.07653,0.01861l0,-0.6845zm0.39415,2.25094c0.07328,-0.00791 0.13998,-0.02045 0.20039,-0.03766c0.11259,-0.03152 0.19935,-0.07547 0.26011,-0.132c0.06091,-0.05727 0.09229,-0.12196 0.09344,-0.19504c-0.00115,-0.06815 -0.03038,-0.127 -0.0866,-0.17606c-0.05637,-0.04892 -0.14203,-0.09129 -0.25786,-0.127a2.05596,1.51579 0 0 0 -0.20947,-0.05495l0,0.72272zm-4.69783,-2.76467c1.27115,-1.76045 4.23699,-2.42792 6.62479,-1.49074c2.38795,0.93707 3.29329,3.12367 2.02214,4.88423c-1.271,1.76052 -4.23684,2.42792 -6.62474,1.49085c-2.38795,-0.93718 -3.29319,-3.12379 -2.02219,-4.88434zm5.98425,-3.24497l-0.52216,-1.76063c2.2365,0.30667 5.82122,3.6608 6.97963,5.18586c0.5912,0.7784 1.10897,1.63591 1.533,2.59453c0.84457,2.32012 0.03103,4.49054 -3.38268,4.99608c-2.13887,0.31682 -6.12782,0.33922 -8.37734,0.25341c-2.41833,-0.09221 -6.1606,-0.08941 -7.13822,-1.91996c-1.5778,-2.95478 1.31301,-6.47487 3.94869,-8.62929c0.34691,-0.28353 0.70554,-0.54772 1.07659,-0.7916c0.71597,-0.46434 1.41278,-0.94766 2.22922,-1.31736l0.001,-0.00037c0.29972,-0.13436 0.61141,-0.24925 0.93661,-0.33385l0.00215,-0.00055l0.05777,-0.01467l-1.19213,1.6365l1.36738,-1.33645l0.36402,-0.35577l0.91227,0l0.53513,0.79727l0.66907,0.99687z"/>
 </g>
</svg>