<svg width="24" height="24" viewBox="0 0 24 24" fill="none" xmlns="http://www.w3.org/2000/svg">
<path d="M19.8802 18.47C20.3602 17.7 20.6302 16.8 20.5702 15.81C20.4402 13.66 18.7302 11.84 16.6002 11.61C15.9696 11.5366 15.3307 11.5975 14.7253 11.7887C14.1199 11.9798 13.5618 12.2969 13.0877 12.7191C12.6136 13.1413 12.2341 13.659 11.9743 14.2382C11.7145 14.8175 11.5802 15.4452 11.5802 16.08C11.5802 18.57 13.5902 20.58 16.0702 20.58C16.9502 20.58 17.7702 20.32 18.4602 19.88L20.8702 22.29C21.2602 22.68 21.9002 22.68 22.2902 22.29C22.6802 21.9 22.6802 21.26 22.2902 20.87L19.8802 18.47ZM16.0802 18.58C15.4172 18.58 14.7813 18.3166 14.3125 17.8478C13.8436 17.3789 13.5802 16.743 13.5802 16.08C13.5802 15.417 13.8436 14.7811 14.3125 14.3122C14.7813 13.8434 15.4172 13.58 16.0802 13.58C16.7433 13.58 17.3792 13.8434 17.848 14.3122C18.3168 14.7811 18.5802 15.417 18.5802 16.08C18.5802 16.743 18.3168 17.3789 17.848 17.8478C17.3792 18.3166 16.7433 18.58 16.0802 18.58ZM15.7202 10.08C14.9802 10.1 14.2702 10.26 13.6202 10.53L13.0702 9.7L9.99023 14.71C9.90794 14.8442 9.79513 14.9571 9.66099 15.0394C9.52684 15.1218 9.37515 15.1713 9.21825 15.184C9.06135 15.1966 8.90368 15.1721 8.75806 15.1123C8.61244 15.0525 8.48299 14.9592 8.38023 14.84L6.26023 12.37L3.20023 17.27C2.89023 17.76 2.23023 17.89 1.76023 17.55C1.34023 17.24 1.22023 16.66 1.50023 16.21L5.28023 10.16C5.64023 9.59 6.45023 9.53 6.89023 10.04L9.00023 12.5L12.1802 7.33C12.2677 7.18712 12.3897 7.0686 12.5351 6.98541C12.6805 6.90222 12.8445 6.85703 13.012 6.85404C13.1795 6.85105 13.345 6.89035 13.4933 6.9683C13.6415 7.04625 13.7677 7.16034 13.8602 7.3L15.7202 10.08ZM18.3102 10.58C17.6702 10.3 16.9802 10.13 16.2602 10.09L20.8002 2.9C21.1102 2.41 21.7702 2.29 22.2302 2.63C22.6602 2.94 22.7702 3.53 22.4902 3.97L18.3102 10.58Z" fill="#9F9F9F"/>
</svg>
