<svg width="33" height="33" viewBox="0 0 33 33" fill="none" xmlns="http://www.w3.org/2000/svg">
<path d="M24.8906 14.5H22.8906V8.5C22.8906 5.1863 20.2043 2.5 16.8906 2.5C13.5769 2.5 10.8906 5.1863 10.8906 8.5V14.5H8.89062C7.78606 14.5 6.89062 15.3954 6.89062 16.5V28.5C6.89062 29.6046 7.78606 30.5 8.89062 30.5H24.8906C25.9952 30.5 26.8906 29.6046 26.8906 28.5V16.5C26.8906 15.3954 25.9952 14.5 24.8906 14.5ZM12.8906 8.5C12.8906 6.29086 14.6815 4.5 16.8906 4.5C19.0998 4.5 20.8906 6.29086 20.8906 8.5V14.5H12.8906V8.5ZM24.8906 28.5H8.89062V16.5H24.8906V28.5Z" fill="white"/>
</svg>
