<svg width="33" height="33" viewBox="0 0 33 33" fill="none" xmlns="http://www.w3.org/2000/svg">
<path d="M17.2949 15.1814H16.3181C15.6781 15.1814 15.1391 14.6424 15.1391 14.0024C15.1391 13.3623 15.6781 12.8233 16.3181 12.8233H17.5982C17.9687 12.8233 18.3057 13.0592 18.4067 13.4295C18.4403 13.598 18.6088 13.699 18.7772 13.699H20.4614C20.6973 13.699 20.8656 13.4969 20.832 13.2274C20.6299 11.8127 19.5183 10.6675 18.1036 10.4652V9.0169C18.1036 8.81483 17.9351 8.64636 17.7331 8.64636H16.0825C15.8804 8.64636 15.7119 8.81483 15.7119 9.0169V10.4991C13.8931 10.836 12.5456 12.5202 12.7815 14.4737C13.0174 16.3264 14.6677 17.6401 16.5204 17.6401H17.4971C18.1372 17.6401 18.6762 18.1791 18.6762 18.8191C18.6762 19.4592 18.1372 19.9982 17.4971 19.9982H16.2171C15.8465 19.9982 15.5096 19.7623 15.4086 19.392C15.375 19.2235 15.2065 19.1225 15.0381 19.1225H13.3539C13.118 19.1225 12.9497 19.3246 12.9833 19.5941C13.1854 21.0088 14.297 22.154 15.7117 22.3563V23.8046C15.7117 24.0067 15.8801 24.1751 16.0822 24.1751H17.7328C17.9349 24.1751 18.1033 24.0067 18.1033 23.8046V22.3224C19.9222 21.9855 21.2697 20.3012 21.0338 18.3478C20.7981 16.4951 19.1476 15.1814 17.2949 15.1814Z" fill="white"/>
<path d="M16.8905 4.36914C10.2547 4.36914 4.86523 9.75873 4.86523 16.3944C4.86523 23.0301 10.2548 28.4197 16.8905 28.4197C23.5262 28.4197 28.9158 23.0301 28.9158 16.3944C28.9158 9.75873 23.5262 4.36914 16.8905 4.36914ZM16.8905 26.7691C11.1642 26.7691 6.51576 22.1207 6.51576 16.3944C6.51576 10.6681 11.1642 6.01967 16.8905 6.01967C22.6168 6.01967 27.2652 10.6681 27.2652 16.3944C27.2652 22.1207 22.6168 26.7691 16.8905 26.7691Z" fill="white"/>
<path d="M16.8906 0.394531C8.06536 0.394531 0.890625 7.56927 0.890625 16.3945C0.890625 25.2198 8.06536 32.3945 16.8906 32.3945C25.7159 32.3945 32.8906 25.2198 32.8906 16.3945C32.8906 7.56927 25.7159 0.394531 16.8906 0.394531ZM16.8906 30.5419C9.07589 30.5419 2.74326 24.2093 2.74326 16.3945C2.74326 8.57979 9.07589 2.24716 16.8906 2.24716C24.7054 2.24716 31.038 8.57979 31.038 16.3945C31.038 24.2093 24.7054 30.5419 16.8906 30.5419Z" fill="white"/>
</svg>
