<svg width="40" height="32" viewBox="0 0 40 32" fill="none" xmlns="http://www.w3.org/2000/svg">
<path d="M39.2076 11.0164C39.058 11.381 38.8028 11.6922 38.4753 11.9107C38.1478 12.1288 37.7624 12.2444 37.3687 12.2427H14.1919C13.4852 12.2427 12.8323 11.8657 12.4792 11.2539C12.1261 10.6421 12.1261 9.88814 12.4792 9.27634C12.8323 8.66455 13.4852 8.28757 14.1919 8.28757H32.5243L27.6793 3.36361C27.3107 2.99282 27.1041 2.49182 27.1041 1.96916C27.1041 1.44696 27.3107 0.945513 27.6793 0.575159C28.0496 0.20702 28.5506 0 29.0733 0C29.5959 0 30.0969 0.20702 30.4673 0.575159L38.773 8.86095C39.051 9.13683 39.2404 9.48908 39.3181 9.87267C39.3953 10.2563 39.3569 10.6544 39.2082 11.0164L39.2076 11.0164ZM26.0564 19.7574H2.8796C2.35299 19.7543 1.84669 19.9613 1.47329 20.333C1.10029 20.7046 0.890174 21.2096 0.890626 21.7367C0.891067 22.2633 1.10162 22.7678 1.47594 23.139L9.78162 31.4248C10.152 31.793 10.653 32 11.1756 32C11.6983 32 12.1993 31.793 12.5696 31.4248C12.9382 31.0545 13.1448 30.553 13.1448 30.0308C13.1448 29.5082 12.9382 29.0072 12.5696 28.6364L7.64565 23.7124H26.0571C26.7638 23.7124 27.4167 23.3355 27.7698 22.7237C28.1229 22.1118 28.1229 21.3579 27.7698 20.7461C27.4167 20.1343 26.7638 19.7573 26.0571 19.7573L26.0564 19.7574Z" fill="white"/>
</svg>
