<svg width="49" height="49" viewBox="0 0 49 49" fill="none" xmlns="http://www.w3.org/2000/svg">
<rect x="0.769531" y="0.519531" width="48" height="48" rx="4" fill="#1A1A25"/>
<path d="M20.9294 20.1997C18.7653 20.1997 16.6897 21.0594 15.1595 22.5897C13.6292 24.1201 12.7695 26.1957 12.7695 28.3596C12.7695 30.5235 13.6293 32.5993 15.1595 34.1296C16.6899 35.6598 18.7655 36.5195 20.9294 36.5195C23.0934 36.5195 25.1691 35.6598 26.6994 34.1296C28.2297 32.5992 29.0894 30.5235 29.0894 28.3596C29.0894 26.1957 28.2296 24.1199 26.6994 22.5897C25.169 21.0594 23.0934 20.1997 20.9294 20.1997ZM20.9294 35.56C19.0199 35.56 17.1884 34.8014 15.8381 33.4512C14.4879 32.1009 13.7293 30.2694 13.7293 28.3598C13.7293 26.4503 14.4879 24.6188 15.8381 23.2685C17.1883 21.9183 19.0199 21.1597 20.9294 21.1597C22.839 21.1597 24.6705 21.9183 26.0208 23.2685C27.371 24.6187 28.1296 26.4503 28.1296 28.3598C28.1296 30.2694 27.371 32.1009 26.0208 33.4512C24.6705 34.8014 22.839 35.56 20.9294 35.56Z" fill="white"/>
<path d="M25.0092 25.7196L21.1691 23.5042C21.0206 23.4185 20.8376 23.4185 20.6891 23.5042L16.849 25.7196C16.7007 25.8053 16.6092 25.9634 16.609 26.1349V30.5724C16.6047 30.7481 16.6969 30.9118 16.849 30.9997L20.6891 33.2174C20.8376 33.3031 21.0206 33.3031 21.1691 33.2174L25.0092 30.9997C25.1575 30.914 25.249 30.7558 25.2492 30.5844V26.1373C25.2498 25.965 25.1583 25.8057 25.0092 25.7196ZM20.9291 24.4715L23.8835 26.1779L20.9291 27.8796L17.9747 26.1803L20.9291 24.4715ZM17.569 27.0563L20.4491 28.7196V31.9596L17.569 30.294V27.0563ZM21.4091 31.9597V28.7196L24.2892 27.0563V30.2941L21.4091 31.9597Z" fill="white"/>
<path d="M28.6096 12.5195C24.0328 12.5195 20.4495 14.1996 20.4495 16.3596V18.7596C20.4495 19.0247 20.6644 19.2396 20.9295 19.2396C21.1945 19.2396 21.4095 19.0247 21.4095 18.7596V18.1933C22.7728 19.3933 25.4559 20.1997 28.6096 20.1997C31.7633 20.1997 34.4465 19.398 35.8097 18.1933V22.6524C35.8097 23.6891 33.8897 24.9948 30.2274 25.4845C29.9788 25.5198 29.7994 25.7405 29.8159 25.991C29.8322 26.2415 30.0388 26.4372 30.2897 26.4398H30.3521C32.8481 26.1085 34.7465 25.4078 35.8098 24.4837V28.8662C35.8098 30.0015 33.6354 31.3646 29.9992 31.6766C29.7341 31.6879 29.5282 31.9119 29.5396 32.1771C29.5509 32.4422 29.7749 32.6479 30.0399 32.6366H30.0807C34.0193 32.2935 36.7695 30.7455 36.7695 28.8662V16.3597C36.7695 14.1996 33.1862 12.5196 28.6094 12.5196L28.6096 12.5195ZM28.6096 19.2396C24.3662 19.2396 21.4095 17.7229 21.4095 16.3596C21.4095 14.9963 24.3662 13.4795 28.6096 13.4795C32.853 13.4795 35.8097 14.9963 35.8097 16.3596C35.8097 17.7229 32.853 19.2396 28.6096 19.2396Z" fill="white"/>
</svg>
