<svg width="30" height="30" viewBox="0 0 57 56" fill="none" xmlns="http://www.w3.org/2000/svg">
<path d="M40.5833 40.25V45.5H15.2083C13.1197 45.5 11.1166 44.6703 9.63979 43.1935C8.16294 41.7166 7.33325 39.7136 7.33325 37.625C7.33325 35.5364 8.16294 33.5334 9.63979 32.0565C11.1166 30.5797 13.1197 29.75 15.2083 29.75H16.0833V26.25H15.2083C12.1914 26.25 9.29814 27.4484 7.16491 29.5817C5.03169 31.7149 3.83325 34.6082 3.83325 37.625C3.83325 40.6418 5.03169 43.5351 7.16491 45.6683C9.29814 47.8016 12.1914 49 15.2083 49H40.5833V54.25H54.5833V40.25H40.5833ZM51.0833 50.75H44.0833V43.75H51.0833V50.75Z" fill="white"/>
<path d="M37.0833 38.5H33.5833V33.25H23.0833V38.5H19.5833V33.25C19.5842 32.322 19.9532 31.4323 20.6094 30.7762C21.2656 30.12 22.1553 29.7509 23.0833 29.75H33.5833C34.5112 29.7509 35.4009 30.12 36.0571 30.7762C36.7133 31.4323 37.0823 32.322 37.0833 33.25V38.5ZM28.3333 28C27.2949 28 26.2799 27.6921 25.4165 27.1152C24.5531 26.5383 23.8802 25.7184 23.4829 24.7591C23.0855 23.7998 22.9816 22.7442 23.1841 21.7258C23.3867 20.7074 23.8867 19.7719 24.6209 19.0377C25.3552 18.3035 26.2906 17.8035 27.309 17.6009C28.3274 17.3983 29.383 17.5023 30.3423 17.8996C31.3017 18.297 32.1216 18.9699 32.6985 19.8333C33.2753 20.6966 33.5833 21.7117 33.5833 22.75C33.5819 24.142 33.0283 25.4765 32.044 26.4608C31.0598 27.445 29.7252 27.9986 28.3333 28ZM28.3333 21C27.9871 21 27.6488 21.1026 27.361 21.2949C27.0732 21.4872 26.8489 21.7605 26.7165 22.0803C26.584 22.4001 26.5494 22.7519 26.6169 23.0914C26.6844 23.4309 26.8511 23.7427 27.0958 23.9874C27.3406 24.2322 27.6524 24.3989 27.9918 24.4664C28.3313 24.5339 28.6832 24.4992 29.0029 24.3668C29.3227 24.2343 29.596 24.01 29.7883 23.7223C29.9806 23.4345 30.0833 23.0961 30.0833 22.75C30.0828 22.286 29.8983 21.8412 29.5702 21.5131C29.2421 21.185 28.7972 21.0005 28.3333 21Z" fill="white"/>
<path d="M41.4583 7H16.0833V1.75H2.08325V15.75H16.0833V10.5H41.4583C43.5468 10.5 45.5499 11.3297 47.0267 12.8065C48.5036 14.2834 49.3333 16.2864 49.3333 18.375C49.3333 20.4636 48.5036 22.4666 47.0267 23.9435C45.5499 25.4203 43.5468 26.25 41.4583 26.25H40.5833V29.75H41.4583C44.4751 29.75 47.3684 28.5516 49.5016 26.4183C51.6348 24.2851 52.8333 21.3918 52.8333 18.375C52.8333 15.3582 51.6348 12.4649 49.5016 10.3317C47.3684 8.19843 44.4751 7 41.4583 7ZM12.5833 12.25H5.58325V5.25H12.5833V12.25Z" fill="white"/>
</svg>
