<svg width="49" height="49" viewBox="0 0 49 49" fill="none" xmlns="http://www.w3.org/2000/svg">
<path d="M36.2386 29.2899C36.035 28.7627 35.6303 28.3381 35.1136 28.1095C34.5968 27.8807 34.0105 27.867 33.4835 28.0709L32.3457 28.4772C31.5751 27.2016 30.5075 26.1311 29.234 25.357C27.9603 24.5829 26.5185 24.1283 25.0314 24.0318V22.3616C25.9984 22.3616 27.8027 22.1666 28.9893 20.976C30.6432 19.3221 30.3627 16.4737 30.3506 16.3518H30.3504C30.3181 16.0677 30.0941 15.8435 29.81 15.8111C28.6261 15.7139 27.4364 15.9064 26.3438 16.372C26.3656 16.2376 26.3763 16.1018 26.3763 15.9657C26.3763 14.3403 24.8688 13.1212 24.8037 13.0642C24.5807 12.8848 24.2629 12.8848 24.0398 13.0642C23.9788 13.1455 22.4713 14.3646 22.4713 15.99C22.4868 16.4328 22.5992 16.8671 22.8004 17.2618C21.9385 16.9204 21.0099 16.7815 20.086 16.8555C19.8012 16.8863 19.5763 17.1113 19.5456 17.3959C19.5456 17.4935 19.3058 19.834 20.6712 21.2035C21.618 22.1502 23.0241 22.3291 23.8368 22.3452L23.8366 24.0358C21.4788 24.188 19.2682 25.2345 17.6559 26.9615C16.7044 26.7614 15.7348 26.6605 14.7626 26.6607H13.0477C12.719 26.6718 12.4584 26.9415 12.4585 27.2703V34.3287C12.4583 34.6576 12.719 34.9274 13.0477 34.9382C14.4326 34.9362 15.8021 35.227 17.0666 35.7916C18.6757 36.5009 20.4083 36.8873 22.1662 36.9294C23.3058 36.9393 24.4354 36.7168 25.486 36.2752L35.1205 32.0856C35.6386 31.8621 36.0471 31.4425 36.2564 30.9186C36.466 30.3947 36.4593 29.8089 36.2379 29.2899L36.2386 29.2899ZM28.1115 20.1147C27.2339 20.9923 25.7913 21.1346 25.015 21.1428V20.7731C25.072 19.9115 25.3116 18.7413 26.0309 18.0342C26.9127 17.1523 28.3635 17.0143 29.1395 17.0061C29.1517 17.7822 29.0137 19.241 28.1318 20.1147L28.1115 20.1147ZM24.4259 14.4054C24.8453 14.8338 25.1051 15.3933 25.1613 15.9901C25.0998 16.5797 24.8406 17.1312 24.4259 17.5546C24.0112 17.1312 23.7519 16.5797 23.6904 15.9901C23.7467 15.3933 24.0064 14.8339 24.4259 14.4054ZM21.5123 20.3502C20.8785 19.7164 20.7442 18.6881 20.7281 18.0664C21.3498 18.0867 22.3819 18.2208 23.0118 18.8507C23.6417 19.4805 23.7799 20.5127 23.796 21.1344C23.1743 21.1183 22.1463 20.9842 21.5123 20.3502ZM24.4259 25.2264C25.767 25.2228 27.0876 25.5558 28.2668 26.1948C29.446 26.8337 30.4461 27.7581 31.1753 28.8836L27.1118 30.3628C27.1426 29.8325 26.9503 29.3135 26.5813 28.9315C26.2124 28.5495 25.7004 28.339 25.1695 28.3514C23.3144 28.4461 21.4591 28.1698 19.7123 27.5387C19.4806 27.4534 19.249 27.3721 19.0133 27.2988C20.499 25.9633 22.4281 25.2275 24.4259 25.2346L24.4259 25.2264ZM34.6214 30.9725L25.0031 35.1579C22.4188 36.2632 19.5176 35.5033 17.5504 34.6703C16.3203 34.125 15.001 33.8084 13.6576 33.7357V27.88H14.7711C16.3138 27.878 17.8443 28.1532 19.2896 28.6927C21.1751 29.3842 23.1799 29.691 25.1856 29.5949C25.4439 29.5949 25.6829 29.7327 25.812 29.9566C25.9412 30.1803 25.9412 30.456 25.812 30.6798C25.6829 30.9037 25.4439 31.0416 25.1856 31.0416H22.2923C21.9557 31.0416 21.6828 31.3144 21.6828 31.6511C21.6828 31.9876 21.9557 32.2606 22.2923 32.2606H25.2141C25.4265 32.2523 25.6371 32.2153 25.8398 32.1509L33.8939 29.217C34.2041 29.1029 34.5513 29.1582 34.8109 29.3628C35.0705 29.5676 35.2051 29.8923 35.1663 30.2207C35.1277 30.549 34.9212 30.8336 34.6214 30.9725Z" fill="white"/>
</svg>
