<svg width="13" height="14" viewBox="0 0 13 14" fill="none" xmlns="http://www.w3.org/2000/svg">
<path d="M8.46011 13.9651H1.89848C1.61003 13.9646 1.33349 13.8497 1.12964 13.6456C0.925787 13.4415 0.81111 13.165 0.810791 12.8765V3.66922C0.811102 3.38055 0.925882 3.10381 1.13003 2.89976C1.33419 2.6956 1.61093 2.58092 1.89959 2.58063H8.4599C8.74857 2.58094 9.02531 2.69562 9.22946 2.89976C9.43362 3.10382 9.54841 3.38055 9.5487 3.66922V12.8765C9.54839 13.1651 9.43361 13.4419 9.22946 13.6459C9.0253 13.8501 8.74857 13.9649 8.4599 13.9651L8.46011 13.9651ZM1.89848 3.04496C1.7332 3.04548 1.57478 3.11142 1.45801 3.22838C1.34116 3.34545 1.27552 3.50399 1.27531 3.66925V12.8765C1.27552 13.0418 1.34126 13.2002 1.45801 13.3172C1.57486 13.4341 1.73319 13.5001 1.89848 13.5006H8.46011C8.6256 13.5004 8.78424 13.4347 8.9013 13.3176C9.01836 13.2006 9.0842 13.042 9.08441 12.8765V3.66927C9.0842 3.50378 9.01836 3.34525 8.9014 3.22829C8.78444 3.11123 8.6258 3.0455 8.46032 3.04518L1.89848 3.04496Z" fill="#5C616F"/>
<path d="M11.0388 11.4142H10.8925C10.7643 11.4142 10.6603 11.3102 10.6603 11.182C10.6603 11.0537 10.7643 10.9497 10.8925 10.9497H11.0388C11.1971 10.949 11.3486 10.8855 11.4601 10.7733C11.5718 10.661 11.6343 10.5092 11.6341 10.3509V1.0903C11.6339 0.932387 11.5712 0.781013 11.4596 0.669237C11.348 0.557567 11.1968 0.494525 11.0388 0.494109H4.42384C4.26551 0.494005 4.11351 0.556736 4.00131 0.668406C3.88912 0.780179 3.82587 0.931978 3.82536 1.09032V1.20966C3.82536 1.33803 3.72136 1.44192 3.5931 1.44192C3.46484 1.44192 3.36084 1.33803 3.36084 1.20966V1.09032C3.36146 0.808823 3.47375 0.539005 3.67305 0.340245C3.87233 0.141373 4.14234 0.0297082 4.42384 0.0296021H11.0388C11.3199 0.0301205 11.5893 0.142103 11.788 0.340961C11.9866 0.539729 12.0983 0.809221 12.0986 1.09029V10.3509C12.0986 10.6323 11.9871 10.9023 11.7884 11.1016C11.5897 11.3009 11.3202 11.4133 11.0388 11.4142Z" fill="#5C616F"/>
</svg>
