<svg width="30" height="30" viewBox="0 0 55 56" fill="none" xmlns="http://www.w3.org/2000/svg">
<path d="M53.9528 1.13409C53.7904 0.729523 53.4782 0.403158 53.0812 0.222891C52.6843 0.0426235 52.2331 0.0223331 51.8216 0.166241C51.4101 0.310148 51.0699 0.607174 50.8718 0.995526C50.6737 1.38388 50.6329 1.83366 50.758 2.25129C53.3592 9.72729 48.196 15.3105 44.2592 18.3009L42.6688 16.0217C42.134 15.2573 40.9384 14.6217 40.0088 14.6105L31.0824 14.6497C29.992 14.6826 28.9307 15.0096 28.0108 15.5961L1.70759 34.0397C1.09578 34.4702 0.679487 35.1257 0.549865 35.8625C0.420242 36.5993 0.587851 37.3574 1.01599 37.9709L12.9692 55.0733C13.8652 56.3473 15.296 56.1933 16.5728 55.3029L42.876 36.8565C43.632 36.3217 44.5056 35.1681 44.8136 34.2861L47.608 25.4801C47.916 24.6009 47.7284 23.2597 47.1936 22.4953L46.2248 21.1065C51.5112 17.0549 56.9992 9.89529 53.9528 1.13409ZM41.714 27.3365C41.2294 27.6757 40.6828 27.9161 40.1053 28.0439C39.5278 28.1718 38.9307 28.1846 38.3483 28.0816C37.7658 27.9786 37.2093 27.7619 36.7107 27.4438C36.212 27.1257 35.7809 26.7125 35.442 26.2277C34.7558 25.2467 34.4869 24.0336 34.6942 22.8545C34.9016 21.6755 35.5683 20.6269 36.548 19.9389C37.3161 19.4008 38.2331 19.1161 39.1708 19.1246C40.1086 19.1332 41.0203 19.4345 41.7784 19.9865C41.0168 20.4457 40.4932 20.7145 40.3952 20.7565C40.0481 20.922 39.7675 21.2005 39.5994 21.5463C39.4313 21.8921 39.3857 22.2848 39.4699 22.66C39.5542 23.0352 39.7634 23.3706 40.0633 23.6113C40.3631 23.852 40.7359 23.9837 41.1204 23.9849C41.3612 23.9849 41.6076 23.9289 41.84 23.8197C42.3832 23.5621 42.9656 23.2569 43.5732 22.8957C43.713 23.7359 43.6126 24.5984 43.2837 25.3841C42.9548 26.1697 42.4107 26.8465 41.714 27.3365Z" fill="white"/>
</svg>
