<svg width="16" height="17" viewBox="0 0 16 17" fill="none" xmlns="http://www.w3.org/2000/svg">
<g id="Frame 1000005274">
<g id="Group">
<path id="Vector" d="M7.66671 2.92447C6.61188 2.92447 5.58073 3.23726 4.70367 3.8233C3.82661 4.40933 3.14302 5.24228 2.73935 6.21682C2.33568 7.19136 2.23007 8.26372 2.43585 9.29828C2.64164 10.3328 3.14959 11.2832 3.89547 12.029C4.64135 12.7749 5.59166 13.2829 6.62623 13.4887C7.66079 13.6944 8.73315 13.5888 9.70769 13.1852C10.6822 12.7815 11.5152 12.0979 12.1012 11.2208C12.6872 10.3438 13 9.31263 13 8.2578C12.9984 6.84382 12.4359 5.48823 11.4361 4.4884C10.4363 3.48857 9.08069 2.92613 7.66671 2.92447ZM7.66671 12.9637C6.73597 12.9637 5.82614 12.6877 5.05226 12.1706C4.27838 11.6535 3.67522 10.9186 3.31904 10.0587C2.96286 9.19878 2.86967 8.25258 3.05125 7.33973C3.23283 6.42688 3.68102 5.58837 4.33915 4.93024C4.99728 4.27211 5.83579 3.82392 6.74864 3.64234C7.66149 3.46076 8.60768 3.55396 9.46757 3.91013C10.3275 4.26631 11.0624 4.86948 11.5795 5.64335C12.0966 6.41723 12.3726 7.32707 12.3726 8.2578C12.3715 9.50554 11.8753 10.7019 10.993 11.5841C10.1108 12.4664 8.91445 12.9626 7.66671 12.9637ZM7.37181 6.25205C7.29325 6.17396 7.24888 6.06791 7.24841 5.95715C7.24532 5.93005 7.24532 5.90268 7.24841 5.87558C7.25317 5.84833 7.26088 5.82168 7.27141 5.7961C7.28177 5.7709 7.29511 5.74702 7.31115 5.72499C7.32612 5.7015 7.34365 5.67975 7.36344 5.66015C7.44355 5.58562 7.54892 5.54419 7.65834 5.54419C7.76777 5.54419 7.87313 5.58562 7.95324 5.66015C7.97303 5.67975 7.99057 5.7015 8.00553 5.72499C8.02079 5.74751 8.03409 5.7713 8.04527 5.7961C8.0558 5.82168 8.06352 5.84833 8.06828 5.87558C8.07699 5.90203 8.08261 5.9294 8.08501 5.95715C8.08454 6.06791 8.04016 6.17396 7.96161 6.25205C7.9432 6.27229 7.92209 6.28988 7.89887 6.30434C7.87637 6.32082 7.85174 6.33419 7.82566 6.34408C7.8009 6.35488 7.77492 6.36261 7.74828 6.36708C7.7215 6.37297 7.69413 6.37578 7.66671 6.37545C7.55595 6.37498 7.44989 6.3306 7.37181 6.25205ZM8.64971 10.5585C8.64971 10.6417 8.61666 10.7215 8.55783 10.7803C8.49899 10.8391 8.41919 10.8722 8.33599 10.8722H6.99743C6.91422 10.8722 6.83443 10.8391 6.77559 10.7803C6.71676 10.7215 6.6837 10.6417 6.6837 10.5585C6.6837 10.4752 6.71676 10.3955 6.77559 10.3366C6.83443 10.2778 6.91422 10.2447 6.99743 10.2447H7.35298V7.73493H7.03926C6.95605 7.73493 6.87626 7.70187 6.81742 7.64304C6.75859 7.5842 6.72553 7.50441 6.72553 7.4212C6.72553 7.338 6.75859 7.2582 6.81742 7.19936C6.87626 7.14053 6.95605 7.10747 7.03926 7.10747H7.66671C7.74991 7.10747 7.82971 7.14053 7.88855 7.19936C7.94738 7.2582 7.98043 7.338 7.98043 7.4212V10.2447H8.33599C8.41919 10.2447 8.49899 10.2778 8.55783 10.3366C8.61666 10.3955 8.64971 10.4752 8.64971 10.5585Z" fill="#A3A3A3"/>
</g>
</g>
</svg>
