<svg width="28" height="24" viewBox="0 0 280 280" fill="none" xmlns="http://www.w3.org/2000/svg">
<g clip-path="url(#clip0_2309_718)">
<path d="M140 280C217.32 280 280 217.32 280 140C280 62.6801 217.32 0 140 0C62.6801 0 0 62.6801 0 140C0 217.32 62.6801 280 140 280Z" fill="#3E73C4"/>
<path d="M175.195 158.584C175.195 139.999 163.995 133.629 141.595 130.969C125.6 128.843 122.406 124.599 122.406 117.162C122.406 109.724 127.743 104.947 138.401 104.947C148 104.947 153.337 108.132 155.997 116.103C156.274 116.874 156.781 117.541 157.449 118.015C158.117 118.489 158.914 118.747 159.733 118.754H168.265C168.757 118.767 169.248 118.68 169.706 118.498C170.164 118.316 170.58 118.043 170.93 117.695C171.279 117.348 171.554 116.933 171.738 116.475C171.922 116.018 172.012 115.528 172.001 115.036V114.511C170.958 108.743 168.04 103.482 163.7 99.5438C159.36 95.6055 153.841 93.2108 148 92.7318V79.9918C148 77.8655 146.398 76.273 143.738 75.7393H135.732C133.606 75.7393 132.005 77.3318 131.471 79.9918V92.2068C115.467 94.3243 105.343 104.947 105.343 118.229C105.343 135.747 116.001 142.651 138.401 145.311C153.337 147.962 158.132 151.156 158.132 159.652C158.132 168.139 150.668 173.984 140.536 173.984C126.667 173.984 121.872 168.148 120.271 160.177C119.746 158.059 118.136 156.992 116.535 156.992H107.47C106.978 156.98 106.488 157.068 106.031 157.25C105.574 157.433 105.159 157.706 104.81 158.054C104.462 158.401 104.188 158.816 104.004 159.273C103.82 159.729 103.731 160.218 103.742 160.711V161.236C105.868 174.518 114.408 184.073 132.005 186.733V199.482C132.005 201.599 133.606 203.201 136.266 203.726H144.272C146.398 203.726 148 202.133 148.533 199.482V186.724C164.537 184.073 175.195 172.917 175.195 158.575V158.584Z" fill="white"/>
<path d="M112.805 214.349C71.2073 199.474 49.8748 153.274 65.3448 112.385C73.3423 90.0725 90.9386 73.0887 112.805 65.1175C114.94 64.0587 115.999 62.4663 115.999 59.8063V52.3688C115.999 50.2513 114.94 48.6588 112.805 48.125C112.271 48.125 111.204 48.125 110.67 48.65C98.6686 52.3978 87.5272 58.4826 77.8873 66.554C68.2473 74.6254 60.2992 84.524 54.5005 95.6797C48.7018 106.836 45.1671 119.028 44.0999 131.556C43.0327 144.083 44.4541 156.698 48.2823 168.674C57.8723 198.424 80.8061 221.261 110.67 230.816C112.805 231.875 114.94 230.816 115.465 228.69C115.999 228.165 115.999 227.622 115.999 226.564V219.126C115.999 217.534 114.406 215.416 112.805 214.349ZM169.33 48.6587C167.195 47.5912 165.06 48.6587 164.535 50.7762C164.001 51.31 164.001 51.8438 164.001 52.9025V60.34C164.001 62.4662 165.594 64.5837 167.195 65.6512C208.792 80.5262 230.125 126.726 214.655 167.615C206.657 189.928 189.061 206.911 167.195 214.883C165.06 215.941 164.001 217.534 164.001 220.194V227.631C164.001 229.749 165.06 231.341 167.195 231.875C167.729 231.875 168.796 231.875 169.33 231.35C181.331 227.602 192.472 221.517 202.112 213.446C211.752 205.375 219.7 195.476 225.499 184.32C231.298 173.164 234.833 160.972 235.9 148.444C236.967 135.917 235.545 123.302 231.717 111.326C222.127 81.0512 198.66 58.2137 169.33 48.6587Z" fill="white"/>
</g>
<defs>
<clipPath id="clip0_2309_718">
<rect width="280" height="280" fill="white"/>
</clipPath>
</defs>
</svg>
